<svg width="431" height="559" viewBox="0 0 431 559" fill="none" xmlns="http://www.w3.org/2000/svg">
<path d="M268.839 0.842932C268.839 0.842932 395.409 6.52884 409.026 117.045C422.644 227.561 315.902 223.547 284.797 223.882C270.798 223.882 242.894 223.882 216.567 223.882C160.664 223.595 116.228 202.62 105.143 147.815C103.833 141.398 103.145 134.87 103.088 128.321C102.945 68.6433 147.572 -8.95205 268.839 0.842932Z" fill="#39B24A"/>
<path d="M151.251 129.993L313.131 141.46C317.176 141.746 321.238 141.231 325.084 139.944C328.93 138.657 332.484 136.623 335.542 133.96C338.6 131.296 341.103 128.056 342.907 124.423C344.71 120.791 345.779 116.838 346.052 112.792C346.337 108.747 345.822 104.685 344.535 100.839C343.248 96.9931 341.214 93.4391 338.551 90.3808C335.888 87.3224 332.647 84.8199 329.015 83.0164C325.382 81.213 321.43 80.1442 317.383 79.8714L155.599 68.643C151.556 68.3573 147.496 68.8731 143.654 70.1607C139.811 71.4484 136.26 73.4826 133.205 76.1464C130.151 78.8103 127.653 82.0513 125.854 85.6834C124.056 89.3155 122.993 93.267 122.726 97.3112C122.201 105.422 124.906 113.41 130.25 119.534C135.594 125.657 143.144 129.417 151.251 129.993Z" fill="#263238"/>
<path d="M277.487 112.697C277.76 114.632 278.6 116.443 279.901 117.901C281.202 119.36 282.906 120.4 284.798 120.89C286.689 121.381 288.684 121.3 290.53 120.658C292.376 120.016 293.99 118.842 295.169 117.283C296.348 115.724 297.038 113.851 297.154 111.901C297.269 109.95 296.804 108.008 295.817 106.322C294.83 104.635 293.366 103.278 291.609 102.423C289.852 101.568 287.881 101.252 285.944 101.517C284.654 101.693 283.41 102.122 282.286 102.78C281.162 103.437 280.178 104.311 279.392 105.35C278.607 106.389 278.034 107.572 277.707 108.833C277.38 110.094 277.305 111.407 277.487 112.697Z" fill="white"/>
<path d="M164.391 104.622C164.655 106.561 165.487 108.377 166.784 109.843C168.081 111.308 169.783 112.356 171.675 112.853C173.567 113.351 175.565 113.276 177.414 112.638C179.264 112.001 180.883 110.829 182.067 109.271C183.25 107.713 183.945 105.839 184.063 103.886C184.181 101.933 183.718 99.9887 182.731 98.2992C181.744 96.6098 180.278 95.251 178.519 94.3947C176.76 93.5385 174.786 93.2234 172.848 93.4891C170.25 93.8451 167.901 95.2175 166.315 97.3051C164.729 99.3926 164.037 102.024 164.391 104.622Z" fill="white"/>
<path d="M228.894 65.7768C230.395 61.9127 231.639 57.9545 232.621 53.9273C235.319 44.3772 239.289 35.233 244.423 26.7403C249.373 18.1925 256.493 11.1046 265.064 6.19461C268.765 4.35993 272.579 2.76399 276.483 1.41657C275.355 1.3592 274.225 1.48836 273.139 1.79882C270.137 2.47345 267.22 3.48319 264.443 4.80901C255.37 9.51495 247.84 16.7294 242.75 25.5934C237.5 34.2076 233.631 43.5907 231.283 53.4017C230.376 57.1285 229.754 60.1866 229.324 62.2889C229.035 63.429 228.891 64.6007 228.894 65.7768Z" fill="white"/>
<path d="M246.907 223.93C246.907 223.691 243.085 220.776 237.877 214.899C231.12 207.151 226.174 197.994 223.399 188.095C220.769 178.162 219.421 167.934 219.386 157.659C219.646 153.378 219.646 149.086 219.386 144.806C219.027 145.918 218.834 147.077 218.812 148.246C218.574 150.444 218.287 153.645 218.048 157.802C217.635 168.255 218.811 178.711 221.536 188.811C224.477 198.92 229.821 208.166 237.112 215.76C239.318 218.043 241.699 220.152 244.232 222.066C245.761 223.404 246.812 224.073 246.907 223.93Z" fill="white"/>
<g opacity="0.3">
<path d="M134.002 198.845C147.19 189.719 157.224 190.053 173.947 186.9C190.73 184.067 207.717 182.613 224.738 182.552C263.965 181.692 304.483 183.269 338.264 196.886C347.25 199.903 355.167 205.464 361.055 212.893C361.055 212.893 344.81 221.732 311.411 223.07C279.494 224.312 212.649 223.595 212.649 223.595C193.629 223.401 174.801 219.759 157.08 212.845C135.914 203.862 134.002 198.845 134.002 198.845Z" fill="black"/>
</g>
<path d="M112.74 95.3042C112.299 97.2313 112.091 99.2044 112.119 101.181C112.046 106.873 113.358 112.497 115.941 117.57C120.106 125.656 127.019 131.992 135.436 135.44C146.575 139.526 158.31 141.754 170.172 142.033L261.863 149.105L288.333 151.159C297.364 151.733 306.585 152.832 316.094 152.736C325.979 153.084 335.682 150.012 343.567 144.04C351.359 137.418 356.362 128.098 357.575 117.945C358.789 107.793 356.124 97.5558 350.113 89.2839C344.212 81.3072 335.796 75.5506 326.223 72.943C321.629 71.8408 316.942 71.169 312.223 70.9363L298.558 69.694L272.088 67.2571L223.4 62.7657C208.014 61.6668 193.871 59.3735 180.732 58.5612C174.495 58.1541 168.239 58.1541 162.002 58.5612C156.413 58.895 150.882 59.8729 145.518 61.4757C136.846 63.9577 128.952 68.6118 122.583 74.9975C118.698 79.0774 115.776 83.9752 114.03 89.3316C113.586 90.7209 113.25 92.1428 113.027 93.5842C112.986 94.077 112.986 94.5724 113.027 95.0653C113.027 95.0653 113.361 93.0586 114.603 89.4273C116.434 84.1373 119.421 79.322 123.347 75.332C129.683 69.1637 137.473 64.6937 145.995 62.3357C151.299 60.7921 156.77 59.8938 162.289 59.66C168.477 59.2305 174.687 59.2305 180.875 59.66C193.871 60.5201 208.062 62.9091 223.4 64.1036L272.327 68.8816L298.797 71.414L312.462 72.7041C317.07 72.9174 321.646 73.5734 326.127 74.6632C335.24 77.1867 343.235 82.7079 348.823 90.3351C354.557 98.184 357.086 107.923 355.894 117.57C354.725 127.207 349.986 136.055 342.612 142.368C335.074 148.089 325.789 151.027 316.332 150.682C307.063 150.682 297.794 149.678 288.763 149.105L262.245 147.194L170.554 140.505C158.827 140.31 147.208 138.212 136.152 134.293C127.965 130.973 121.202 124.886 117.04 117.092C114.456 112.127 113.05 106.634 112.931 101.038C112.773 99.131 112.709 97.2174 112.74 95.3042Z" fill="white"/>
<path d="M409.743 135.536C407.733 133.726 405.462 132.228 403.006 131.092C397.292 127.998 391.311 125.424 385.136 123.4C378.919 121.334 372.519 119.862 366.024 119.004C363.37 118.456 360.65 118.295 357.949 118.526C357.949 119.147 370.086 120.533 384.324 125.263C398.563 129.993 409.743 136.062 409.743 135.536Z" fill="white"/>
<path d="M262.914 17.4226C262.674 17.2922 262.404 17.2264 262.131 17.2317C261.858 17.2371 261.59 17.3134 261.355 17.4531C261.121 17.5928 260.926 17.7912 260.791 18.0288C260.656 18.2663 260.585 18.535 260.585 18.8083C260.585 19.0816 260.656 19.3501 260.791 19.5877C260.926 19.8252 261.121 20.0236 261.355 20.1633C261.59 20.3031 261.858 20.3793 262.131 20.3847C262.404 20.39 262.674 20.3242 262.914 20.1938C263.131 20.0445 263.308 19.8448 263.431 19.6117C263.553 19.3787 263.617 19.1192 263.617 18.856C263.617 18.5927 263.553 18.3334 263.431 18.1004C263.308 17.8673 263.131 17.6675 262.914 17.5181" fill="white"/>
<path d="M247.29 48.7189C247.047 48.6273 246.786 48.5951 246.528 48.6252C246.27 48.6552 246.023 48.7465 245.808 48.8916C245.593 49.0366 245.416 49.2311 245.291 49.4588C245.166 49.6865 245.098 49.9408 245.092 50.2003C245.101 50.4757 245.183 50.7437 245.329 50.9777C245.474 51.2118 245.678 51.4035 245.921 51.534C246.164 51.6645 246.436 51.7291 246.712 51.7214C246.987 51.7137 247.256 51.6339 247.491 51.49C247.726 51.3461 247.919 51.1432 248.051 50.9013C248.183 50.6595 248.25 50.3873 248.244 50.1118C248.238 49.8363 248.16 49.5671 248.018 49.3311C247.876 49.0951 247.674 48.9005 247.433 48.7668" fill="white"/>
<path d="M376.679 112.171C376.432 112.078 376.167 112.046 375.905 112.079C375.644 112.111 375.394 112.207 375.178 112.357C374.961 112.508 374.785 112.709 374.664 112.943C374.542 113.176 374.48 113.436 374.481 113.7C374.491 113.975 374.572 114.243 374.718 114.477C374.863 114.711 375.067 114.903 375.31 115.034C375.553 115.164 375.826 115.229 376.101 115.221C376.376 115.214 376.645 115.134 376.88 114.99C377.115 114.846 377.308 114.643 377.44 114.401C377.573 114.159 377.639 113.887 377.633 113.612C377.627 113.336 377.549 113.067 377.407 112.831C377.265 112.595 377.063 112.4 376.822 112.267" fill="white"/>
<path d="M402.958 121.871C402.713 121.769 402.446 121.729 402.182 121.754C401.918 121.78 401.664 121.869 401.442 122.015C401.221 122.162 401.039 122.36 400.911 122.593C400.784 122.826 400.716 123.086 400.712 123.352C400.722 123.627 400.804 123.895 400.949 124.129C401.095 124.363 401.299 124.555 401.542 124.686C401.784 124.816 402.057 124.881 402.332 124.873C402.608 124.865 402.877 124.785 403.112 124.642C403.347 124.498 403.54 124.295 403.672 124.053C403.804 123.811 403.87 123.539 403.865 123.263C403.859 122.988 403.781 122.719 403.639 122.483C403.496 122.247 403.295 122.052 403.054 121.918" fill="white"/>
<g opacity="0.3">
<path d="M235.775 7.29325C235.775 8.72666 247.194 10.3511 265.494 13.5046C289.124 17.0071 312.073 24.1304 333.533 34.6236C344.952 40.7049 355.403 48.4504 364.543 57.606C371.977 65.098 378.286 73.6278 383.273 82.9296C391.73 98.9838 392.829 110.738 394.31 110.547C394.884 110.547 395.409 107.537 395.075 102.137C394.448 94.4998 392.593 87.0133 389.58 79.9672C385.098 69.4257 378.844 59.7295 371.089 51.299C361.631 41.0057 350.481 32.4083 338.12 25.8797C325.866 19.472 312.845 14.655 299.371 11.5456C288.524 9.0392 277.503 7.3621 266.402 6.52875C247.529 5.1909 235.87 6.00318 235.775 7.29325Z" fill="white"/>
</g>
<g opacity="0.3">
<path d="M379.546 167.931C381.457 169.794 388.194 165.877 392.399 157.802C396.604 149.727 395.935 142.034 393.307 141.556C390.679 141.079 387.191 146.573 383.751 153.262C380.311 159.952 377.587 166.02 379.546 167.931Z" fill="white"/>
</g>
<path d="M207.871 106.867C207.306 109.699 207.746 112.638 209.113 115.181C210.487 118.403 212.72 121.186 215.568 123.225C218.416 125.264 221.77 126.482 225.263 126.744C228.756 127.086 232.275 126.461 235.436 124.935C238.597 123.41 241.276 121.043 243.181 118.096C244.953 115.835 245.897 113.036 245.856 110.164C244.829 112.667 243.564 115.067 242.082 117.331C240.308 119.6 238.078 121.472 235.536 122.826C232.422 124.401 228.931 125.079 225.454 124.785C221.988 124.475 218.677 123.2 215.898 121.106C213.634 119.34 211.776 117.107 210.451 114.56C209.331 112.09 208.466 109.513 207.871 106.867Z" fill="white"/>
<path d="M110.733 263.205C103.375 265.88 111.785 374.724 117.47 430.197C120.528 459.916 125.02 490.783 142.077 515.342C161.189 542.672 194.636 554.808 228.082 558.344C274.19 563.122 310.312 541.43 331.24 504.782C351.611 469.46 364.919 430.512 370.42 390.109C376.249 344.336 379.976 314.521 378.925 274.481C378.733 274.672 244.614 214.469 110.733 263.205Z" fill="#39B24A"/>
<path d="M295.309 483.043C295.073 482.935 294.813 482.886 294.553 482.898C294.293 482.911 294.041 482.987 293.816 483.118C293.591 483.249 293.401 483.432 293.262 483.652C293.123 483.872 293.038 484.122 293.016 484.381C293.034 484.644 293.115 484.899 293.251 485.125C293.387 485.351 293.574 485.542 293.798 485.682C294.021 485.822 294.275 485.906 294.538 485.93C294.8 485.953 295.065 485.913 295.309 485.815C295.526 485.66 295.703 485.456 295.825 485.219C295.947 484.982 296.011 484.719 296.011 484.453C296.011 484.186 295.947 483.924 295.825 483.687C295.703 483.45 295.526 483.246 295.309 483.091" fill="white"/>
<path d="M246.908 484.667C246.671 484.559 246.412 484.51 246.152 484.523C245.892 484.535 245.639 484.611 245.414 484.742C245.189 484.873 244.999 485.056 244.86 485.276C244.721 485.496 244.637 485.746 244.614 486.005C244.633 486.268 244.713 486.523 244.849 486.749C244.985 486.975 245.172 487.166 245.396 487.306C245.62 487.446 245.873 487.53 246.136 487.554C246.399 487.577 246.663 487.537 246.908 487.439C247.125 487.284 247.301 487.08 247.424 486.843C247.546 486.606 247.609 486.343 247.609 486.077C247.609 485.81 247.546 485.548 247.424 485.311C247.301 485.074 247.125 484.87 246.908 484.715" fill="white"/>
<path d="M190.575 438.703C190.334 438.572 190.065 438.507 189.791 438.512C189.518 438.517 189.251 438.594 189.016 438.733C188.781 438.873 188.587 439.071 188.452 439.309C188.316 439.547 188.245 439.815 188.245 440.088C188.245 440.362 188.316 440.63 188.452 440.868C188.587 441.106 188.781 441.304 189.016 441.444C189.251 441.583 189.518 441.66 189.791 441.665C190.065 441.67 190.334 441.605 190.575 441.474C190.792 441.319 190.968 441.115 191.09 440.878C191.213 440.641 191.276 440.379 191.276 440.112C191.276 439.846 191.213 439.583 191.09 439.346C190.968 439.11 190.792 438.905 190.575 438.751" fill="white"/>
<path d="M205.816 313.9C205.576 313.77 205.306 313.704 205.033 313.709C204.76 313.715 204.492 313.791 204.258 313.931C204.023 314.07 203.828 314.269 203.693 314.506C203.558 314.744 203.487 315.012 203.487 315.286C203.487 315.559 203.558 315.828 203.693 316.065C203.828 316.303 204.023 316.501 204.258 316.641C204.492 316.78 204.76 316.857 205.033 316.862C205.306 316.868 205.576 316.802 205.816 316.671C206.033 316.517 206.21 316.312 206.332 316.076C206.454 315.839 206.518 315.576 206.518 315.31C206.518 315.043 206.454 314.781 206.332 314.544C206.21 314.307 206.033 314.103 205.816 313.948" fill="white"/>
<path d="M157.845 337.647C157.604 337.549 157.343 337.509 157.084 337.53C156.825 337.55 156.574 337.631 156.351 337.765C156.128 337.9 155.94 338.085 155.801 338.305C155.663 338.525 155.577 338.774 155.552 339.033C155.567 339.296 155.646 339.552 155.782 339.778C155.918 340.004 156.108 340.193 156.333 340.33C156.559 340.466 156.815 340.546 157.078 340.561C157.342 340.577 157.605 340.528 157.845 340.419C158.062 340.269 158.239 340.069 158.362 339.836C158.484 339.603 158.548 339.344 158.548 339.081C158.548 338.818 158.484 338.558 158.362 338.325C158.239 338.092 158.062 337.892 157.845 337.743" fill="white"/>
<path d="M348.966 464.791C348.727 464.684 348.465 464.635 348.202 464.649C347.94 464.662 347.685 464.737 347.457 464.867C347.229 464.997 347.035 465.179 346.89 465.399C346.746 465.618 346.655 465.868 346.625 466.129C346.651 466.394 346.738 466.649 346.879 466.874C347.021 467.1 347.212 467.289 347.439 467.428C347.666 467.567 347.922 467.652 348.187 467.675C348.452 467.698 348.719 467.659 348.966 467.562C349.183 467.407 349.36 467.203 349.482 466.966C349.604 466.729 349.668 466.467 349.668 466.2C349.668 465.934 349.604 465.671 349.482 465.435C349.36 465.198 349.183 464.993 348.966 464.839" fill="white"/>
<path d="M353.936 423.269C353.699 423.161 353.44 423.111 353.18 423.124C352.92 423.137 352.667 423.212 352.442 423.343C352.217 423.475 352.027 423.658 351.888 423.878C351.749 424.097 351.665 424.347 351.642 424.607C351.661 424.87 351.741 425.125 351.877 425.351C352.013 425.577 352.201 425.767 352.424 425.907C352.648 426.047 352.901 426.132 353.164 426.155C353.427 426.178 353.691 426.139 353.936 426.04C354.153 425.885 354.33 425.681 354.452 425.444C354.574 425.207 354.637 424.945 354.637 424.678C354.637 424.412 354.574 424.149 354.452 423.913C354.33 423.676 354.153 423.471 353.936 423.317" fill="white"/>
<path d="M354.748 385.905C354.505 385.798 354.239 385.75 353.974 385.766C353.708 385.781 353.45 385.86 353.221 385.996C352.992 386.131 352.799 386.32 352.657 386.545C352.516 386.77 352.43 387.026 352.407 387.291C352.401 387.565 352.468 387.836 352.599 388.077C352.731 388.318 352.923 388.521 353.157 388.665C353.39 388.809 353.658 388.889 353.932 388.898C354.206 388.907 354.478 388.844 354.721 388.715C354.963 388.587 355.169 388.398 355.316 388.166C355.462 387.934 355.546 387.667 355.558 387.393C355.571 387.119 355.511 386.846 355.386 386.602C355.261 386.358 355.074 386.15 354.844 386.001" fill="white"/>
<path d="M355.369 346.248C355.126 346.14 354.86 346.093 354.595 346.108C354.329 346.124 354.071 346.203 353.842 346.339C353.613 346.474 353.42 346.662 353.278 346.888C353.137 347.113 353.051 347.368 353.028 347.633C353.022 347.908 353.089 348.179 353.22 348.42C353.352 348.661 353.544 348.863 353.778 349.007C354.011 349.151 354.279 349.232 354.553 349.241C354.827 349.25 355.099 349.187 355.342 349.058C355.585 348.93 355.789 348.74 355.936 348.508C356.083 348.276 356.167 348.01 356.18 347.736C356.192 347.462 356.133 347.189 356.007 346.945C355.882 346.7 355.695 346.493 355.465 346.343" fill="white"/>
<path d="M127.839 330.194C127.602 330.086 127.343 330.036 127.083 330.049C126.823 330.062 126.57 330.137 126.345 330.268C126.121 330.399 125.931 330.582 125.791 330.802C125.652 331.022 125.568 331.272 125.545 331.532C125.54 331.806 125.606 332.077 125.738 332.318C125.869 332.559 126.061 332.762 126.295 332.906C126.529 333.049 126.796 333.13 127.071 333.139C127.345 333.148 127.617 333.085 127.86 332.956C128.102 332.828 128.307 332.638 128.454 332.406C128.601 332.174 128.685 331.908 128.697 331.634C128.709 331.36 128.65 331.087 128.524 330.843C128.399 330.599 128.212 330.391 127.982 330.242" fill="white"/>
<path d="M185.892 485.384C185.652 485.253 185.382 485.187 185.109 485.193C184.836 485.198 184.568 485.274 184.333 485.414C184.099 485.554 183.904 485.752 183.769 485.99C183.634 486.227 183.563 486.496 183.563 486.769C183.563 487.043 183.634 487.311 183.769 487.549C183.904 487.786 184.099 487.985 184.333 488.124C184.568 488.264 184.836 488.34 185.109 488.346C185.382 488.351 185.652 488.285 185.892 488.155C186.119 488.002 186.304 487.795 186.433 487.554C186.561 487.312 186.628 487.043 186.628 486.769C186.628 486.496 186.561 486.226 186.433 485.985C186.304 485.743 186.119 485.537 185.892 485.384Z" fill="white"/>
<path d="M183.455 524.66C183.215 524.53 182.945 524.464 182.672 524.469C182.399 524.474 182.131 524.551 181.896 524.69C181.662 524.83 181.467 525.029 181.332 525.266C181.197 525.504 181.126 525.772 181.126 526.046C181.126 526.319 181.197 526.587 181.332 526.825C181.467 527.063 181.662 527.261 181.896 527.401C182.131 527.54 182.399 527.617 182.672 527.622C182.945 527.627 183.215 527.562 183.455 527.431C183.672 527.276 183.849 527.072 183.971 526.835C184.093 526.598 184.157 526.336 184.157 526.069C184.157 525.803 184.093 525.54 183.971 525.304C183.849 525.067 183.672 524.862 183.455 524.708" fill="white"/>
<path d="M303.384 531.492C304.09 530.964 304.746 530.373 305.343 529.724C306.537 528.53 308.305 526.714 310.408 524.23C316.565 517.287 321.421 509.291 324.742 500.626C326.794 494.607 328.391 488.441 329.52 482.183C331.001 475.494 332.387 468.327 333.868 460.777C336.735 445.679 339.362 428.956 341.56 411.372C345.269 381.25 347.232 350.939 347.437 320.59C347.437 308.979 347.437 299.566 347.055 293.068C347.055 289.962 347.055 287.478 346.721 285.567C346.719 284.699 346.623 283.833 346.434 282.986C346.374 283.845 346.374 284.708 346.434 285.567V293.211C346.434 299.71 346.434 309.122 346.434 320.733C345.801 350.971 343.648 381.159 339.984 411.181C337.786 428.717 335.206 445.392 332.434 460.491C331.049 468.04 329.711 475.207 328.277 481.896C327.18 488.115 325.582 494.235 323.499 500.196C320.38 508.782 315.806 516.766 309.978 523.8C307.971 526.332 306.298 528.195 305.199 529.486C304.524 530.087 303.915 530.76 303.384 531.492Z" fill="white"/>
<path d="M207.107 418.109C206.581 418.109 204.718 448.306 202.95 485.623C201.182 522.939 200.226 553.232 200.752 553.232C201.278 553.232 203.141 523.035 204.909 485.719C206.677 448.402 207.632 418.109 207.107 418.109Z" fill="white"/>
<path d="M251.351 245.431C250.396 246.268 249.56 247.233 248.867 248.298C247.386 250.257 245.236 253.076 242.655 256.611C237.495 263.683 230.423 273.526 222.779 284.419L219.912 288.481L219.577 289.006C219.377 289.158 219.24 289.38 219.195 289.628C219.174 289.914 219.174 290.201 219.195 290.488V291.109C219.149 291.92 219.149 292.734 219.195 293.546C219.195 296.747 219.195 299.805 219.195 302.672C219.195 308.501 219.577 313.709 219.816 318.057C220.055 322.405 220.294 325.988 220.485 328.425C220.505 329.7 220.682 330.968 221.011 332.2C221.335 327.427 221.335 322.638 221.011 317.866C221.011 313.327 221.011 308.31 220.772 302.528C220.772 299.614 220.772 296.603 220.772 293.498C220.772 292.733 220.772 291.921 220.772 291.204V290.631C220.794 290.537 220.794 290.438 220.772 290.344C220.772 290.344 221.25 289.819 221.393 289.484L224.212 285.423C231.905 274.481 238.546 264.543 243.659 257.28C246.095 253.649 248.054 250.687 249.344 248.632C250.17 247.671 250.846 246.592 251.351 245.431Z" fill="white"/>
<path d="M207.871 475.111C209.444 475.448 211.042 475.656 212.649 475.732C215.707 476.019 220.198 476.305 225.74 476.592C236.778 477.165 252.115 477.5 269.029 477.118C285.944 476.735 301.233 475.732 312.271 474.681C317.765 474.155 322.257 473.63 325.315 473.2C326.931 473.089 328.531 472.817 330.093 472.387C328.504 472.224 326.903 472.224 325.315 472.387L312.271 473.247C301.233 473.916 285.944 474.729 269.268 475.111C252.593 475.493 237.112 475.35 226.266 475.111H213.126C211.381 474.898 209.616 474.898 207.871 475.111Z" fill="white"/>
<path d="M110.064 336.213C110.064 336.213 110.972 336.93 112.74 337.885C115.302 339.22 117.933 340.416 120.624 341.469C129.457 345.022 138.586 347.788 147.906 349.735C157.212 351.772 166.647 353.161 176.145 353.892C180.061 354.363 184.014 354.443 187.946 354.13C184.096 353.355 180.203 352.813 176.288 352.506C169.073 351.598 159.135 350.165 148.336 347.728C139.108 345.748 130.012 343.195 121.102 340.083C114.317 337.79 110.208 335.926 110.064 336.213Z" fill="white"/>
<path d="M172.466 377.592C173.112 386.296 176.323 394.613 181.694 401.493C187.065 408.372 194.355 413.505 202.642 416.244C210.929 418.982 219.842 419.203 228.255 416.878C236.667 414.553 244.202 409.786 249.906 403.181C255.611 396.575 259.23 388.427 260.306 379.766C261.382 371.104 259.866 362.318 255.951 354.518C252.035 346.717 245.895 340.253 238.307 335.94C230.719 331.628 222.023 329.661 213.318 330.289C207.527 330.707 201.876 332.262 196.687 334.867C191.499 337.471 186.875 341.073 183.08 345.467C179.286 349.861 176.395 354.96 174.574 360.472C172.752 365.985 172.036 371.802 172.466 377.592Z" fill="#263238"/>
<path d="M184.411 376.683C184.872 383.037 187.207 389.111 191.121 394.137C195.035 399.163 200.351 402.916 206.398 404.92C212.444 406.924 218.95 407.09 225.091 405.397C231.232 403.703 236.733 400.227 240.898 395.407C245.063 390.587 247.704 384.64 248.489 378.318C249.274 371.996 248.166 365.584 245.306 359.892C242.445 354.2 237.961 349.484 232.421 346.341C226.88 343.198 220.531 341.768 214.178 342.234C205.663 342.857 197.745 346.836 192.163 353.296C186.581 359.756 183.793 368.168 184.411 376.683Z" fill="white"/>
<path d="M199.94 382.56C200.143 380.8 200.239 379.029 200.226 377.257C200.226 373.912 200.226 369.182 200.226 363.353L199.892 364.022L216.424 354.466H215.516L232.239 364.022C232.669 364.786 231.618 363.018 231.713 363.209V367.987V372.765C231.713 375.951 231.713 379.136 231.713 382.321L232.191 381.509L215.803 391.495H216.567C211.455 388.724 207.25 386.717 204.288 385.045C202.769 384.149 201.169 383.397 199.51 382.799C200.797 383.862 202.19 384.79 203.666 385.57C206.485 387.291 210.69 389.727 215.898 392.785H216.233L216.615 392.547L233.195 382.99L233.625 382.751V382.178C233.625 379.216 233.625 376.11 233.625 372.909C233.625 371.284 233.625 369.66 233.625 368.131V363.353C233.625 363.353 232.717 361.776 233.147 362.493L216.376 353.223L215.898 352.937L215.468 353.223L199.51 362.731L199.127 362.97V363.4C199.127 369.421 199.51 374.247 199.653 377.735C199.585 379.349 199.681 380.966 199.94 382.56Z" fill="#39B24A"/>
<g opacity="0.2">
<path d="M378.734 274.672C378.734 274.672 244.471 213.609 110.733 263.205C110.733 263.205 173.278 314.425 378.734 274.672Z" fill="black"/>
</g>
<path d="M110.733 263.205C110.733 263.205 30.0322 198.271 15.8414 203.145C1.65066 208.019 -3.79625 215.472 2.74966 233.008C9.29557 250.543 110.733 347.681 110.733 347.681V263.205Z" fill="#39B24A"/>
<path d="M113.887 387.291C113.38 385.746 113.091 384.138 113.027 382.513C112.645 379.407 112.215 374.868 111.785 369.23C110.877 358.001 110.064 342.473 109.587 325.32C109.109 308.166 109.109 292.59 109.252 281.362C109.252 275.724 109.252 271.184 109.587 268.031C109.53 266.421 109.707 264.812 110.112 263.253C110.456 264.822 110.616 266.425 110.59 268.031C110.59 271.71 110.829 276.154 111.02 281.314C111.307 293.211 111.689 308.405 112.119 325.224C112.549 342.043 113.17 357.285 113.553 369.134C113.553 374.295 113.887 378.69 114.03 382.417C114.191 384.041 114.143 385.679 113.887 387.291Z" fill="#263238"/>
<g opacity="0.2">
<path d="M330.332 296.843C334.346 338.937 348.441 385.189 363.778 424.655C366.502 412.567 368.556 400.765 370.324 390.301C368.604 378.261 360.768 361.967 355.99 350.835C347.963 332.869 340 314.888 332.1 296.89" fill="black"/>
</g>
<path d="M378.734 274.673C378.734 274.673 452.746 425.42 424.077 441.618C383.655 464.6 327.752 284.372 327.752 284.372L353.936 279.164L378.734 274.673Z" fill="#39B24A"/>
<path d="M385.853 418.109C384.528 416.652 383.374 415.049 382.413 413.331C380.358 410.321 377.635 405.83 374.242 400.144C365.831 385.29 358.363 369.922 351.881 354.131C344.236 335.64 338.359 318.535 334.537 306.016C332.578 299.757 331.144 294.645 330.284 291.109C329.698 289.291 329.298 287.418 329.09 285.519C330 287.196 330.706 288.977 331.192 290.822C332.53 294.788 334.202 299.662 336.209 305.491C340.414 317.818 346.577 334.78 354.174 353.271C361.771 371.762 369.607 387.912 375.771 399.427C378.829 405.161 381.409 409.795 383.225 412.949C384.294 414.564 385.175 416.295 385.853 418.109Z" fill="#263238"/>
</svg>
