<svg width="505" height="386" viewBox="0 0 505 386" fill="none" xmlns="http://www.w3.org/2000/svg">
<path d="M450.57 0H13.6414C10.0235 0 6.55375 1.43721 3.99548 3.99548C1.43721 6.55375 0 10.0235 0 13.6414V322.298C0.00333203 325.915 1.44162 329.383 3.99917 331.94C6.55671 334.498 10.0245 335.936 13.6414 335.939H181.303C181.303 335.939 191.962 368.923 158.89 386H315.666C315.666 386 278.328 373.189 287.98 335.939H450.57C454.18 335.926 457.636 334.483 460.184 331.926C462.731 329.369 464.161 325.907 464.161 322.298V13.6414C464.161 10.0322 462.731 6.57007 460.184 4.01324C457.636 1.45642 454.18 0.0133182 450.57 0Z" fill="#455A64"/>
<path d="M237.907 303.422C243.86 311.916 234.547 321.216 226.053 315.276C225.77 315.075 225.524 314.829 225.323 314.546C219.396 306.052 228.683 296.764 237.177 302.692C237.463 302.889 237.71 303.136 237.907 303.422Z" fill="#263238"/>
<path d="M19.6694 5.65045H444.48C446.083 5.65045 447.67 5.96617 449.151 6.57962C450.632 7.19307 451.978 8.09224 453.111 9.22575C454.245 10.3593 455.144 11.7049 455.757 13.1859C456.371 14.6669 456.686 16.2542 456.686 17.8573V279.511H7.4248V17.8573C7.4248 16.2511 7.74178 14.6606 8.35759 13.1772C8.9734 11.6937 9.87594 10.3464 11.0134 9.21236C12.151 8.07836 13.5011 7.18 14.9864 6.56878C16.4718 5.95755 18.0632 5.64548 19.6694 5.65045Z" fill="white"/>
<path d="M18.9897 5.65045H447.235C449.745 5.65045 452.152 6.64748 453.927 8.42221C455.702 10.197 456.699 12.604 456.699 15.1139V28.403H7.43726V17.1651C7.43725 15.6498 7.73632 14.1494 8.31735 12.7499C8.89838 11.3504 9.74992 10.0794 10.8232 9.00965C11.8964 7.93992 13.1702 7.09253 14.5716 6.51609C15.973 5.93965 17.4744 5.64548 18.9897 5.65045Z" fill="#EBEBEB"/>
<path d="M24.9673 17.5049C24.9673 18.1296 24.782 18.7403 24.4349 19.2597C24.0878 19.7792 23.5945 20.184 23.0173 20.4231C22.4402 20.6622 21.8051 20.7247 21.1923 20.6028C20.5796 20.481 20.0168 20.1802 19.5751 19.7384C19.1333 19.2967 18.8325 18.7338 18.7106 18.1211C18.5887 17.5084 18.6513 16.8733 18.8903 16.2961C19.1294 15.7189 19.5343 15.2256 20.0537 14.8785C20.5732 14.5315 21.1839 14.3462 21.8086 14.3462C22.6463 14.3462 23.4497 14.679 24.0421 15.2714C24.6345 15.8637 24.9673 16.6671 24.9673 17.5049Z" fill="#E0E0E0"/>
<path d="M34.3303 17.5049C34.3303 18.1302 34.1447 18.7413 33.7971 19.2611C33.4494 19.7808 32.9554 20.1856 32.3775 20.4243C31.7996 20.663 31.1638 20.7248 30.5507 20.6019C29.9377 20.479 29.3749 20.1769 28.9337 19.7339C28.4924 19.2909 28.1926 18.7269 28.0721 18.1134C27.9517 17.4998 28.016 16.8643 28.257 16.2874C28.498 15.7104 28.9048 15.218 29.4259 14.8724C29.947 14.5269 30.559 14.3437 31.1842 14.3462C31.5984 14.3462 32.0085 14.428 32.3911 14.5869C32.7736 14.7458 33.121 14.9787 33.4133 15.2721C33.7056 15.5656 33.9371 15.9139 34.0944 16.2971C34.2518 16.6802 34.332 17.0907 34.3303 17.5049Z" fill="#E0E0E0"/>
<path d="M43.2776 17.5049C43.2776 18.1296 43.0923 18.7403 42.7452 19.2597C42.3981 19.7792 41.9048 20.184 41.3276 20.4231C40.7505 20.6622 40.1154 20.7247 39.5026 20.6028C38.8899 20.481 38.3271 20.1802 37.8854 19.7384C37.4436 19.2967 37.1428 18.7338 37.0209 18.1211C36.899 17.5084 36.9616 16.8733 37.2007 16.2961C37.4397 15.7189 37.8446 15.2256 38.364 14.8785C38.8835 14.5315 39.4941 14.3462 40.1189 14.3462C40.9566 14.3462 41.76 14.679 42.3524 15.2714C42.9448 15.8637 43.2776 16.6671 43.2776 17.5049Z" fill="#E0E0E0"/>
<path d="M372.447 335.977C372.447 336.128 310.268 336.241 233.566 336.241C156.864 336.241 94.6848 336.141 94.6848 335.977C94.6848 335.814 156.852 335.713 233.566 335.713C310.28 335.713 372.447 335.839 372.447 335.977Z" fill="#263238"/>
<path d="M152.195 183.505L26.918 183.87L27.1697 269.872L131.016 269.582L145.098 269.532L152.447 269.519L152.195 183.505Z" fill="#F5F5F5"/>
<path d="M36.5575 260.635C36.4065 260.635 36.2429 246.049 36.1926 228.054C36.1422 210.058 36.1926 195.46 36.3688 195.46C36.5449 195.46 36.6834 210.046 36.7337 228.054C36.784 246.062 36.7085 260.635 36.5575 260.635Z" fill="#263238"/>
<path d="M145.249 251.36C145.249 251.511 120.822 251.712 90.683 251.788C60.5434 251.863 36.1172 251.788 36.1172 251.675C36.1172 251.561 60.5434 251.335 90.683 251.247C120.822 251.159 145.249 251.209 145.249 251.36Z" fill="#EBEBEB"/>
<path d="M145.224 241.758C145.224 241.909 120.785 242.111 90.6578 242.199C60.5309 242.287 36.092 242.199 36.092 242.073C36.092 241.947 60.5183 241.733 90.6578 241.645C120.797 241.557 145.224 241.645 145.224 241.758Z" fill="#EBEBEB"/>
<path d="M145.198 232.244C145.198 232.395 120.76 232.584 90.6326 232.672C60.5056 232.76 36.0668 232.672 36.0542 232.559C36.0416 232.446 60.4804 232.207 90.6326 232.119C120.785 232.03 145.198 232.093 145.198 232.244Z" fill="#EBEBEB"/>
<path d="M145.161 222.68C145.161 222.831 120.734 223.02 90.6074 223.108C60.4805 223.196 36.0291 223.108 36.0291 222.995C36.0291 222.882 60.4553 222.643 90.5948 222.554C120.734 222.466 145.161 222.529 145.161 222.68Z" fill="#EBEBEB"/>
<path d="M145.135 213.116C145.135 213.267 120.709 213.456 90.5697 213.544C60.4301 213.632 36.0039 213.544 36.0039 213.431C36.0039 213.317 60.4301 213.091 90.5697 213.003C120.709 212.915 145.135 212.965 145.135 213.116Z" fill="#EBEBEB"/>
<path d="M145.11 203.552C145.11 203.703 120.684 203.892 90.5445 203.98C60.405 204.068 35.9788 203.98 35.9788 203.867C35.9788 203.753 60.405 203.527 90.5445 203.439C120.684 203.351 145.11 203.401 145.11 203.552Z" fill="#EBEBEB"/>
<path d="M145.085 193.938C145.085 194.089 120.646 194.29 90.5194 194.378C60.3924 194.466 35.9536 194.378 35.9536 194.252C35.9536 194.126 60.3799 193.912 90.5194 193.824C120.659 193.736 145.085 193.837 145.085 193.938Z" fill="#EBEBEB"/>
<path d="M51.274 245.737L43.4465 245.758L43.4881 260.658L51.3156 260.636L51.274 245.737Z" fill="#39B24A"/>
<path d="M108.117 245.578L100.289 245.6L100.331 260.499L108.158 260.478L108.117 245.578Z" fill="#39B24A"/>
<path d="M66.658 234.677L58.8306 234.701L58.9073 260.561L66.7347 260.538L66.658 234.677Z" fill="#39B24A"/>
<path d="M95.2439 227.92L87.4165 227.942L87.5075 260.523L95.3349 260.501L95.2439 227.92Z" fill="#39B24A"/>
<path d="M81.1014 208.107L73.2739 208.13L73.4294 260.518L81.2568 260.495L81.1014 208.107Z" fill="#39B24A"/>
<path d="M122.043 218.779H114.216V261.478H122.043V218.779Z" fill="#39B24A"/>
<path d="M132.677 260.37C132.677 260.521 111.195 260.71 84.7179 260.786C58.2404 260.861 36.7463 260.786 36.7463 260.647C36.7463 260.509 58.2153 260.32 84.7179 260.245C111.221 260.169 132.677 260.219 132.677 260.37Z" fill="#263238"/>
<path d="M25.7854 48.7896V175.111H228.557H246.339H299.017V48.7896H25.7854Z" fill="#F5F5F5"/>
<path d="M45.0018 136.049V140.039H44.5865V136.414H43.6553V136.049H45.0018Z" fill="#263238"/>
<path d="M45.958 138.038C45.958 136.779 46.625 136.012 47.5436 136.012C48.4623 136.012 49.1419 136.767 49.1419 138.038C49.1419 139.309 48.4749 140.064 47.5436 140.064C46.6124 140.064 45.958 139.309 45.958 138.038ZM48.7266 138.038C48.7266 136.968 48.2484 136.389 47.5436 136.389C46.8389 136.389 46.3733 136.968 46.3733 138.038C46.3733 139.108 46.8515 139.686 47.5436 139.686C48.2358 139.686 48.7266 139.108 48.7266 138.038Z" fill="#263238"/>
<path d="M46.6251 114.87V115.235H43.844V114.946L45.5051 113.322C45.9581 112.882 46.0462 112.605 46.0462 112.341C46.0462 111.875 45.719 111.586 45.1024 111.586C44.8995 111.574 44.6968 111.61 44.5093 111.688C44.3219 111.766 44.1547 111.886 44.0201 112.039L43.7307 111.787C43.9085 111.592 44.127 111.44 44.3706 111.34C44.6143 111.24 44.8771 111.195 45.1402 111.208C45.9456 111.208 46.4615 111.623 46.4615 112.29C46.4548 112.536 46.3924 112.777 46.279 112.995C46.1657 113.213 46.0043 113.402 45.8071 113.549L44.448 114.883L46.6251 114.87Z" fill="#263238"/>
<path d="M47.116 113.247C47.116 111.988 47.7829 111.208 48.7016 111.208C49.6202 111.208 50.2998 111.976 50.2998 113.247C50.2998 114.518 49.6328 115.273 48.7016 115.273C47.7703 115.273 47.116 114.505 47.116 113.247ZM49.8845 113.247C49.8845 112.177 49.4063 111.586 48.7016 111.586C47.9969 111.586 47.5312 112.177 47.5312 113.247C47.5312 114.316 48.0094 114.895 48.7016 114.895C49.3937 114.895 49.8845 114.304 49.8845 113.247Z" fill="#263238"/>
<path d="M46.5371 89.286C46.5371 89.953 46.0463 90.469 45.0899 90.469C44.5632 90.4877 44.0494 90.3029 43.6553 89.953L43.8566 89.6384C44.1995 89.9502 44.6521 90.1131 45.115 90.0914C45.7694 90.0914 46.1344 89.7894 46.1344 89.286C46.1344 88.7827 45.8072 88.5058 45.0647 88.5058H44.7753V88.229L45.8827 86.8447H43.844V86.4797H46.3609V86.7692L45.2283 88.1786C46.1092 88.229 46.5371 88.6568 46.5371 89.286Z" fill="#263238"/>
<path d="M47.116 88.4428C47.116 87.1844 47.7829 86.4167 48.7016 86.4167C49.6202 86.4167 50.2998 87.1718 50.2998 88.4428C50.2998 89.7139 49.6328 90.4689 48.7016 90.4689C47.7703 90.4689 47.116 89.7139 47.116 88.4428ZM49.8845 88.4428C49.8845 87.3732 49.4063 86.7943 48.7016 86.7943C47.9969 86.7943 47.5312 87.3732 47.5312 88.4428C47.5312 89.5125 48.0094 90.0914 48.7016 90.0914C49.3937 90.0914 49.8845 89.4873 49.8845 88.4428Z" fill="#263238"/>
<path d="M62.6072 151.151C62.6072 149.892 63.2741 149.112 64.1928 149.112C65.1115 149.112 65.791 149.88 65.791 151.151C65.791 152.422 65.124 153.177 64.1928 153.177C63.2616 153.177 62.6072 152.409 62.6072 151.151ZM65.3757 151.151C65.3757 150.081 64.8975 149.49 64.1928 149.49C63.4881 149.49 63.0225 150.081 63.0225 151.151C63.0225 152.22 63.5007 152.799 64.1928 152.799C64.8849 152.799 65.3757 152.183 65.3757 151.151Z" fill="#263238"/>
<path d="M92.1301 149.125V153.114H91.6645V149.49H90.7207V149.125H92.1301Z" fill="#263238"/>
<path d="M123.239 152.749V153.114H120.445V152.824L122.093 151.201C122.547 150.761 122.635 150.484 122.635 150.219C122.635 149.754 122.307 149.464 121.703 149.464C121.499 149.454 121.294 149.49 121.105 149.568C120.916 149.646 120.746 149.766 120.609 149.917L120.319 149.666C120.498 149.473 120.717 149.321 120.96 149.221C121.203 149.121 121.466 149.075 121.729 149.087C122.547 149.087 123.05 149.502 123.05 150.169C123.043 150.415 122.981 150.656 122.867 150.874C122.754 151.092 122.593 151.281 122.396 151.428L121.049 152.762L123.239 152.749Z" fill="#263238"/>
<path d="M152.648 151.969C152.648 152.636 152.158 153.152 151.201 153.152C150.674 153.17 150.161 152.986 149.767 152.636L149.968 152.308C150.135 152.467 150.333 152.591 150.549 152.671C150.766 152.751 150.996 152.786 151.226 152.774C151.893 152.774 152.246 152.459 152.246 151.969C152.246 151.478 151.919 151.176 151.176 151.176H150.811V150.874L151.919 149.49H149.93V149.125H152.447V149.414L151.314 150.836C152.221 150.886 152.648 151.327 152.648 151.969Z" fill="#263238"/>
<path d="M182.889 152.069H182.096V153.114H181.68V152.069H179.44V151.767L181.555 149.125H182.008L179.969 151.704H181.693V150.773H182.096V151.704H182.889V152.069Z" fill="#263238"/>
<path d="M211.707 151.944C211.707 152.623 211.229 153.202 210.26 153.202C209.733 153.218 209.22 153.034 208.825 152.686L209.026 152.359C209.194 152.517 209.392 152.639 209.608 152.719C209.825 152.799 210.055 152.835 210.285 152.825C210.952 152.825 211.317 152.497 211.317 152.007C211.317 151.516 211.002 151.176 209.983 151.176H209.127L209.341 149.175H211.518V149.54H209.693L209.555 150.798H210.071C211.216 150.761 211.707 151.239 211.707 151.944Z" fill="#263238"/>
<path d="M241.494 151.918C241.494 152.092 241.459 152.265 241.389 152.424C241.32 152.584 241.218 152.727 241.09 152.846C240.963 152.964 240.812 153.055 240.647 153.112C240.483 153.168 240.308 153.191 240.135 153.177C239.065 153.177 238.499 152.434 238.499 151.176C238.499 149.917 239.241 149.112 240.324 149.112C240.653 149.097 240.98 149.176 241.267 149.339L241.104 149.666C240.867 149.529 240.596 149.463 240.324 149.477C239.468 149.477 238.914 150.031 238.914 151.113C238.908 151.222 238.908 151.331 238.914 151.44C239.028 151.21 239.21 151.021 239.435 150.897C239.66 150.773 239.917 150.721 240.173 150.748C240.502 150.731 240.826 150.844 241.073 151.063C241.32 151.282 241.471 151.589 241.494 151.918ZM241.091 151.918C241.091 151.402 240.701 151.063 240.084 151.063C239.959 151.049 239.832 151.06 239.712 151.097C239.591 151.134 239.479 151.194 239.382 151.276C239.286 151.357 239.207 151.457 239.15 151.569C239.093 151.682 239.06 151.805 239.052 151.931C239.052 152.371 239.417 152.787 240.11 152.787C240.231 152.801 240.355 152.789 240.472 152.753C240.589 152.716 240.697 152.656 240.789 152.576C240.882 152.495 240.956 152.396 241.008 152.285C241.06 152.174 241.088 152.053 241.091 151.931V151.918Z" fill="#263238"/>
<path d="M270.803 149.125V149.414L269.104 153.114H268.664L270.312 149.49H268.261V150.232H267.846V149.125H270.803Z" fill="#263238"/>
<path d="M271.017 138.227C271.017 138.441 224.857 138.617 167.926 138.617C110.994 138.617 64.8347 138.441 64.8347 138.227C64.8347 138.013 110.982 137.837 167.926 137.837C224.87 137.837 271.017 138.013 271.017 138.227Z" fill="#263238"/>
<path d="M271.017 113.31C271.017 113.523 224.857 113.687 167.926 113.687C110.994 113.687 64.8347 113.523 64.8347 113.31C64.8347 113.096 110.982 112.919 167.926 112.919C224.87 112.919 271.017 113.096 271.017 113.31Z" fill="#263238"/>
<path d="M271.017 88.38C271.017 88.5939 224.857 88.7701 167.926 88.7701C110.994 88.7701 64.8347 88.5939 64.8347 88.38C64.8347 88.166 110.982 87.9899 167.926 87.9899C224.87 87.9899 271.017 88.229 271.017 88.38Z" fill="#263238"/>
<path d="M64.8346 137.862C64.8371 138.127 64.7606 138.386 64.615 138.607C64.4694 138.829 64.2612 139.002 64.017 139.104C63.7727 139.207 63.5035 139.234 63.2435 139.183C62.9836 139.132 62.7448 139.005 62.5575 138.817C62.3701 138.63 62.2428 138.391 62.1918 138.131C62.1407 137.871 62.1682 137.602 62.2707 137.358C62.3732 137.114 62.5461 136.906 62.7674 136.76C62.9887 136.614 63.2483 136.538 63.5132 136.54C63.6891 136.531 63.865 136.559 64.0294 136.623C64.1938 136.686 64.3431 136.783 64.4677 136.907C64.5922 137.032 64.6892 137.181 64.7524 137.346C64.8156 137.51 64.8436 137.686 64.8346 137.862Z" fill="#39B24A"/>
<path d="M94.4709 137.862C94.4709 138.123 94.3933 138.379 94.2481 138.596C94.103 138.813 93.8966 138.982 93.6551 139.082C93.4137 139.182 93.148 139.209 92.8917 139.158C92.6354 139.107 92.3999 138.981 92.2151 138.796C92.0303 138.611 91.9045 138.376 91.8535 138.119C91.8025 137.863 91.8287 137.597 91.9287 137.356C92.0287 137.115 92.1981 136.908 92.4154 136.763C92.6327 136.618 92.8881 136.54 93.1495 136.54C93.3254 136.531 93.5012 136.559 93.6656 136.623C93.83 136.686 93.9793 136.783 94.1039 136.907C94.2284 137.032 94.3255 137.181 94.3887 137.346C94.4519 137.51 94.4799 137.686 94.4709 137.862Z" fill="#39B24A"/>
<path d="M124.12 137.862C124.12 138.123 124.042 138.379 123.897 138.596C123.752 138.813 123.545 138.982 123.304 139.082C123.062 139.182 122.797 139.209 122.54 139.158C122.284 139.107 122.049 138.981 121.864 138.796C121.679 138.611 121.553 138.376 121.502 138.119C121.451 137.863 121.477 137.597 121.577 137.356C121.677 137.115 121.847 136.908 122.064 136.763C122.281 136.618 122.537 136.54 122.798 136.54C122.974 136.531 123.15 136.559 123.314 136.623C123.479 136.686 123.628 136.783 123.753 136.907C123.877 137.032 123.974 137.181 124.037 137.346C124.101 137.51 124.129 137.686 124.12 137.862Z" fill="#39B24A"/>
<path d="M153.768 137.862C153.771 138.127 153.694 138.386 153.549 138.607C153.403 138.829 153.195 139.002 152.951 139.104C152.707 139.207 152.437 139.234 152.177 139.183C151.917 139.132 151.679 139.005 151.491 138.817C151.304 138.63 151.177 138.391 151.126 138.131C151.075 137.871 151.102 137.602 151.205 137.358C151.307 137.114 151.48 136.906 151.701 136.76C151.923 136.614 152.182 136.538 152.447 136.54C152.623 136.531 152.799 136.559 152.963 136.623C153.128 136.686 153.277 136.783 153.401 136.907C153.526 137.032 153.623 137.181 153.686 137.346C153.749 137.51 153.777 137.686 153.768 137.862Z" fill="#39B24A"/>
<path d="M183.404 137.862C183.392 138.107 183.308 138.344 183.162 138.543C183.017 138.741 182.816 138.893 182.586 138.978C182.355 139.064 182.104 139.08 181.864 139.025C181.624 138.969 181.406 138.845 181.236 138.667C181.067 138.488 180.953 138.264 180.909 138.022C180.865 137.78 180.894 137.53 180.991 137.304C181.087 137.077 181.248 136.884 181.454 136.749C181.659 136.613 181.9 136.541 182.146 136.54C182.317 136.54 182.486 136.575 182.643 136.642C182.8 136.709 182.941 136.807 183.059 136.931C183.177 137.054 183.268 137.201 183.327 137.361C183.387 137.521 183.413 137.691 183.404 137.862Z" fill="#39B24A"/>
<path d="M242.677 137.862C242.679 138.126 242.603 138.385 242.458 138.606C242.313 138.827 242.105 139 241.862 139.103C241.618 139.206 241.35 139.234 241.09 139.184C240.831 139.134 240.592 139.008 240.404 138.822C240.216 138.636 240.088 138.398 240.035 138.139C239.983 137.88 240.009 137.611 240.109 137.367C240.21 137.122 240.381 136.913 240.6 136.766C240.82 136.619 241.078 136.54 241.343 136.54C241.517 136.539 241.69 136.572 241.852 136.637C242.014 136.703 242.161 136.8 242.285 136.923C242.409 137.046 242.508 137.192 242.575 137.353C242.642 137.514 242.677 137.687 242.677 137.862Z" fill="#39B24A"/>
<path d="M213.053 137.862C213.053 138.126 212.974 138.383 212.826 138.602C212.677 138.82 212.467 138.989 212.222 139.087C211.977 139.185 211.708 139.207 211.45 139.151C211.192 139.095 210.957 138.963 210.775 138.771C210.593 138.58 210.472 138.339 210.429 138.079C210.385 137.818 210.421 137.551 210.53 137.311C210.64 137.071 210.819 136.869 211.045 136.732C211.27 136.594 211.531 136.528 211.795 136.54C211.966 136.54 212.135 136.575 212.291 136.642C212.448 136.709 212.59 136.807 212.708 136.931C212.826 137.054 212.917 137.201 212.976 137.361C213.036 137.521 213.062 137.691 213.053 137.862Z" fill="#39B24A"/>
<path d="M272.338 137.862C272.338 138.123 272.261 138.379 272.116 138.596C271.97 138.813 271.764 138.982 271.523 139.082C271.281 139.182 271.015 139.209 270.759 139.158C270.503 139.107 270.267 138.981 270.083 138.796C269.898 138.611 269.772 138.376 269.721 138.119C269.67 137.863 269.696 137.597 269.796 137.356C269.896 137.115 270.066 136.908 270.283 136.763C270.5 136.618 270.756 136.54 271.017 136.54C271.193 136.531 271.369 136.559 271.533 136.623C271.698 136.686 271.847 136.783 271.971 136.907C272.096 137.032 272.193 137.181 272.256 137.346C272.319 137.51 272.347 137.686 272.338 137.862Z" fill="#39B24A"/>
<path d="M78.3377 138.227C78.3377 138.398 78.2868 138.566 78.1914 138.709C78.096 138.852 77.9604 138.963 77.8017 139.029C77.643 139.095 77.4684 139.112 77.3 139.078C77.1316 139.045 76.9768 138.962 76.8554 138.841C76.734 138.719 76.6513 138.564 76.6178 138.396C76.5843 138.228 76.6015 138.053 76.6672 137.894C76.7329 137.736 76.8442 137.6 76.987 137.505C77.1298 137.409 77.2977 137.358 77.4694 137.358C77.6997 137.358 77.9206 137.45 78.0834 137.613C78.2463 137.775 78.3377 137.996 78.3377 138.227Z" fill="#E0E0E0"/>
<path d="M108.1 138.227C108.1 138.398 108.049 138.566 107.953 138.709C107.858 138.852 107.722 138.963 107.564 139.029C107.405 139.095 107.23 139.112 107.062 139.078C106.894 139.045 106.739 138.962 106.617 138.841C106.496 138.719 106.413 138.564 106.38 138.396C106.346 138.228 106.363 138.053 106.429 137.894C106.495 137.736 106.606 137.6 106.749 137.505C106.892 137.409 107.06 137.358 107.231 137.358C107.462 137.358 107.683 137.45 107.845 137.613C108.008 137.775 108.1 137.996 108.1 138.227Z" fill="#E0E0E0"/>
<path d="M137.849 138.227C137.839 138.395 137.78 138.557 137.68 138.693C137.579 138.829 137.441 138.932 137.282 138.991C137.124 139.049 136.952 139.06 136.787 139.022C136.622 138.984 136.472 138.899 136.355 138.777C136.238 138.655 136.16 138.502 136.129 138.335C136.097 138.169 136.116 137.998 136.181 137.842C136.246 137.686 136.355 137.552 136.495 137.457C136.635 137.363 136.799 137.311 136.968 137.308C137.087 137.306 137.206 137.329 137.316 137.375C137.427 137.421 137.526 137.489 137.609 137.575C137.692 137.661 137.756 137.764 137.797 137.876C137.838 137.988 137.856 138.107 137.849 138.227Z" fill="#E0E0E0"/>
<path d="M167.611 138.227C167.611 138.398 167.56 138.566 167.465 138.709C167.369 138.852 167.234 138.963 167.075 139.029C166.916 139.095 166.742 139.112 166.573 139.078C166.405 139.045 166.25 138.962 166.129 138.841C166.007 138.719 165.925 138.564 165.891 138.396C165.858 138.228 165.875 138.053 165.941 137.894C166.006 137.736 166.118 137.6 166.26 137.505C166.403 137.409 166.571 137.358 166.743 137.358C166.973 137.358 167.194 137.45 167.357 137.613C167.52 137.775 167.611 137.996 167.611 138.227Z" fill="#E0E0E0"/>
<path d="M197.373 138.227C197.373 138.398 197.322 138.566 197.227 138.709C197.131 138.852 196.996 138.963 196.837 139.029C196.678 139.095 196.504 139.112 196.335 139.078C196.167 139.045 196.012 138.962 195.891 138.841C195.769 138.719 195.687 138.564 195.653 138.396C195.62 138.228 195.637 138.053 195.703 137.894C195.768 137.736 195.88 137.6 196.022 137.505C196.165 137.409 196.333 137.358 196.505 137.358C196.735 137.358 196.956 137.45 197.119 137.613C197.282 137.775 197.373 137.996 197.373 138.227Z" fill="#E0E0E0"/>
<path d="M227.123 138.227C227.112 138.398 227.051 138.563 226.947 138.7C226.842 138.837 226.7 138.94 226.537 138.996C226.374 139.051 226.198 139.057 226.032 139.013C225.866 138.969 225.716 138.876 225.603 138.747C225.489 138.617 225.417 138.457 225.395 138.286C225.372 138.116 225.402 137.942 225.478 137.788C225.555 137.634 225.675 137.506 225.825 137.42C225.974 137.335 226.145 137.296 226.317 137.308C226.545 137.324 226.758 137.43 226.909 137.602C227.06 137.774 227.136 137.998 227.123 138.227Z" fill="#E0E0E0"/>
<path d="M256.872 138.227C256.872 138.398 256.821 138.566 256.726 138.709C256.63 138.852 256.495 138.963 256.336 139.029C256.177 139.095 256.003 139.112 255.834 139.078C255.666 139.045 255.511 138.962 255.39 138.841C255.268 138.719 255.185 138.564 255.152 138.396C255.118 138.228 255.136 138.053 255.201 137.894C255.267 137.736 255.378 137.6 255.521 137.505C255.664 137.409 255.832 137.358 256.004 137.358C256.234 137.358 256.455 137.45 256.618 137.613C256.78 137.775 256.872 137.996 256.872 138.227Z" fill="#E0E0E0"/>
<path d="M96.3964 127.24C96.3964 127.883 96.206 128.51 95.8492 129.044C95.4924 129.578 94.9854 129.994 94.3921 130.24C93.7988 130.486 93.146 130.55 92.5162 130.425C91.8864 130.3 91.3078 129.99 90.8538 129.536C90.3997 129.082 90.0905 128.504 89.9652 127.874C89.8399 127.244 89.9042 126.591 90.15 125.998C90.3957 125.405 90.8119 124.898 91.3458 124.541C91.8797 124.184 92.5074 123.994 93.1496 123.994C93.576 123.994 93.9982 124.078 94.3921 124.241C94.786 124.404 95.1439 124.643 95.4454 124.945C95.7469 125.246 95.986 125.604 96.1492 125.998C96.3124 126.392 96.3964 126.814 96.3964 127.24Z" fill="#39B24A"/>
<path d="M122.27 111.95C122.272 112.596 122.083 113.227 121.726 113.765C121.37 114.302 120.862 114.722 120.266 114.971C119.671 115.219 119.015 115.286 118.382 115.161C117.749 115.037 117.167 114.727 116.71 114.272C116.253 113.817 115.941 113.236 115.815 112.603C115.688 111.971 115.752 111.315 115.998 110.719C116.244 110.122 116.662 109.612 117.198 109.254C117.734 108.895 118.365 108.704 119.01 108.704C119.873 108.704 120.7 109.045 121.311 109.654C121.921 110.262 122.266 111.088 122.27 111.95Z" fill="#39B24A"/>
<path d="M154.36 113.31C154.36 113.952 154.169 114.58 153.813 115.113C153.456 115.647 152.949 116.064 152.355 116.309C151.762 116.555 151.109 116.619 150.48 116.494C149.85 116.369 149.271 116.059 148.817 115.605C148.363 115.151 148.054 114.573 147.929 113.943C147.803 113.313 147.868 112.66 148.113 112.067C148.359 111.474 148.775 110.967 149.309 110.61C149.843 110.253 150.471 110.063 151.113 110.063C151.974 110.063 152.8 110.405 153.409 111.014C154.018 111.623 154.36 112.449 154.36 113.31Z" fill="#39B24A"/>
<path d="M185.707 85.5611C185.707 86.2032 185.517 86.831 185.16 87.3649C184.803 87.8988 184.296 88.315 183.703 88.5607C183.11 88.8065 182.457 88.8708 181.827 88.7455C181.197 88.6202 180.619 88.311 180.165 87.8569C179.711 87.4028 179.402 86.8243 179.276 86.1945C179.151 85.5647 179.215 84.9119 179.461 84.3186C179.707 83.7253 180.123 83.2183 180.657 82.8615C181.191 82.5047 181.818 82.3143 182.461 82.3143C183.321 82.3176 184.145 82.6608 184.753 83.2689C185.361 83.8771 185.704 84.701 185.707 85.5611Z" fill="#39B24A"/>
<path d="M214.991 103.204C214.991 103.847 214.801 104.474 214.444 105.008C214.087 105.542 213.58 105.958 212.987 106.204C212.394 106.45 211.741 106.514 211.111 106.389C210.481 106.263 209.903 105.954 209.449 105.5C208.994 105.046 208.685 104.468 208.56 103.838C208.435 103.208 208.499 102.555 208.745 101.962C208.99 101.369 209.407 100.862 209.941 100.505C210.474 100.148 211.102 99.9576 211.744 99.9576C212.171 99.9576 212.593 100.042 212.987 100.205C213.381 100.368 213.739 100.607 214.04 100.909C214.342 101.21 214.581 101.568 214.744 101.962C214.907 102.356 214.991 102.778 214.991 103.204Z" fill="#39B24A"/>
<path d="M244.615 107.898C244.615 108.54 244.424 109.168 244.068 109.702C243.711 110.236 243.204 110.652 242.611 110.898C242.017 111.144 241.365 111.208 240.735 111.083C240.105 110.957 239.526 110.648 239.072 110.194C238.618 109.74 238.309 109.161 238.184 108.532C238.058 107.902 238.123 107.249 238.368 106.656C238.614 106.063 239.03 105.555 239.564 105.199C240.098 104.842 240.726 104.652 241.368 104.652C241.795 104.65 242.218 104.733 242.613 104.895C243.007 105.058 243.366 105.297 243.668 105.599C243.969 105.901 244.209 106.259 244.371 106.654C244.534 107.048 244.617 107.471 244.615 107.898Z" fill="#39B24A"/>
<path d="M272.338 127.24C272.087 127.257 271.835 127.257 271.583 127.24C270.839 127.191 270.099 127.09 269.368 126.938C266.523 126.406 263.865 125.144 261.654 123.276C260.084 121.896 258.801 120.219 257.879 118.343C256.767 116.168 255.439 114.111 253.915 112.202C252.232 109.972 249.883 108.337 247.207 107.533C245.743 107.194 244.215 107.246 242.778 107.684C241.266 108.182 239.868 108.973 238.662 110.012C236.146 112.127 234.283 115.122 231.829 117.852C230.601 119.303 229.084 120.482 227.374 121.313C225.532 122.12 223.472 122.289 221.523 121.791C220.532 121.465 219.622 120.932 218.854 120.227C218.086 119.522 217.477 118.661 217.068 117.701C216.216 115.805 215.57 113.822 215.142 111.787C214.742 109.732 214.152 107.718 213.381 105.771C213.008 104.831 212.341 104.037 211.48 103.506C210.548 103.059 209.517 102.856 208.485 102.915C206.289 103.155 204.111 103.542 201.966 104.073C200.835 104.305 199.686 104.436 198.531 104.463C197.328 104.506 196.132 104.274 195.033 103.783C193.924 103.259 192.97 102.457 192.264 101.455C191.586 100.471 191.016 99.4159 190.565 98.309C189.621 96.1067 188.992 93.8163 188.149 91.6015C187.734 90.5015 187.207 89.4472 186.576 88.4554C185.966 87.51 185.09 86.7658 184.059 86.3161C183.782 86.2406 183.518 86.1399 183.241 86.077L182.385 85.9889C181.837 85.9572 181.29 86.07 180.8 86.3161C179.799 86.9265 178.981 87.7961 178.434 88.8329C177.237 90.9839 176.311 93.275 175.678 95.6537C174.973 98.0447 174.419 100.486 173.803 102.953C172.859 107.043 172.003 111.12 170.959 115.109C170.449 117.102 169.84 119.067 169.134 120.999C168.485 122.975 167.436 124.795 166.051 126.347C165.281 127.134 164.232 127.586 163.131 127.605C162.065 127.583 161.025 127.27 160.123 126.699C158.437 125.595 157.005 124.145 155.92 122.446C153.861 119.201 152.173 115.735 150.887 112.114C149.465 108.691 147.854 105.306 145.211 102.978C143.923 101.855 142.385 101.058 140.724 100.655C139.064 100.252 137.331 100.255 135.672 100.662C134.068 101.086 132.54 101.757 131.142 102.651C129.747 103.502 128.422 104.461 127.178 105.52C124.784 107.536 122.573 109.759 120.571 112.164C117.556 115.16 114.279 117.881 110.78 120.294C107.654 122.502 104.274 124.327 100.713 125.73C97.6093 127.02 94.251 127.58 90.8969 127.366C88.1004 127.041 85.3538 126.378 82.7171 125.391C79.0603 124.039 75.51 122.415 72.0959 120.533C70.913 119.891 70.0321 119.375 69.4406 119.01C68.8491 118.645 68.5723 118.444 68.5723 118.444L69.4909 118.935L72.184 120.369C75.6182 122.182 79.1758 123.75 82.8304 125.063C85.4416 126.014 88.1588 126.644 90.9221 126.938C94.2127 127.123 97.5018 126.55 100.537 125.265C104.033 123.856 107.35 122.035 110.415 119.841C113.871 117.432 117.106 114.72 120.08 111.736C122.095 109.284 124.328 107.018 126.75 104.966C127.985 103.905 129.297 102.937 130.676 102.072C132.133 101.139 133.725 100.434 135.395 99.9827C137.163 99.5442 139.009 99.5383 140.78 99.9655C142.55 100.393 144.191 101.24 145.563 102.437C148.37 104.891 150.006 108.389 151.453 111.825C152.749 115.394 154.437 118.808 156.487 122.005C157.513 123.614 158.868 124.986 160.463 126.032C161.248 126.531 162.152 126.809 163.081 126.838C163.987 126.797 164.843 126.41 165.472 125.755C166.757 124.283 167.74 122.573 168.366 120.722C169.06 118.815 169.657 116.875 170.153 114.908C171.198 110.944 172.041 106.866 172.997 102.764C173.576 100.247 174.168 97.8308 174.885 95.4146C175.537 92.9746 176.488 90.6245 177.716 88.4177C178.349 87.2729 179.28 86.3206 180.409 85.6617C181.014 85.3487 181.693 85.2052 182.373 85.2464L183.342 85.3471C183.656 85.4226 183.971 85.5358 184.273 85.6239C185.47 86.1243 186.491 86.9699 187.205 88.0527C187.874 89.088 188.427 90.1937 188.854 91.3498C189.722 93.615 190.339 95.9054 191.257 98.0321C192.176 100.159 193.308 102.273 195.347 103.141C197.386 104.01 199.676 103.758 201.828 103.38C204.011 102.853 206.227 102.471 208.46 102.235C209.62 102.165 210.778 102.399 211.82 102.915C212.813 103.518 213.581 104.428 214.01 105.507C214.804 107.492 215.406 109.549 215.809 111.648C216.211 113.64 216.831 115.582 217.659 117.437C218.024 118.318 218.573 119.111 219.27 119.762C219.967 120.413 220.795 120.908 221.699 121.213C223.504 121.68 225.413 121.529 227.123 120.785C228.752 119.973 230.192 118.828 231.351 117.425C233.767 114.769 235.655 111.749 238.272 109.572C239.536 108.49 241.004 107.673 242.589 107.168C244.113 106.703 245.734 106.655 247.283 107.03C250.052 107.87 252.479 109.577 254.204 111.9C255.739 113.855 257.068 115.964 258.168 118.192C259.058 120.04 260.303 121.694 261.83 123.062C263.988 124.939 266.585 126.238 269.381 126.838C270.102 127.009 270.833 127.13 271.571 127.203C271.827 127.201 272.083 127.214 272.338 127.24Z" fill="#39B24A"/>
<path d="M96.6984 71.303C96.6984 71.5169 85.1963 71.6931 71.0011 71.6931C56.806 71.6931 45.2913 71.5169 45.2913 71.303C45.2913 71.089 56.806 70.9128 71.0011 70.9128C85.1963 70.9128 96.6984 71.089 96.6984 71.303Z" fill="#263238"/>
<path d="M309.915 49.6075V173.098H324.865H345.428H441.333V49.6075H309.915Z" fill="#F5F5F5"/>
<path d="M375.039 63.6013C367.02 63.6013 359.18 65.9794 352.512 70.4347C345.845 74.89 340.648 81.2226 337.579 88.6315C334.51 96.0405 333.707 104.193 335.271 112.058C336.836 119.924 340.698 127.148 346.368 132.819C352.039 138.49 359.263 142.351 367.129 143.916C374.994 145.48 383.147 144.677 390.556 141.608C397.965 138.54 404.297 133.343 408.752 126.675C413.208 120.007 415.586 112.168 415.586 104.148C415.586 93.3944 411.314 83.0812 403.71 75.4772C396.106 67.8732 385.793 63.6013 375.039 63.6013ZM375.656 128.449C370.727 128.451 365.908 126.992 361.809 124.255C357.71 121.519 354.514 117.628 352.626 113.076C350.738 108.523 350.243 103.512 351.203 98.6781C352.163 93.8439 354.535 89.4029 358.02 85.917C361.504 82.431 365.944 80.0566 370.777 79.0942C375.611 78.1317 380.622 78.6244 385.175 80.51C389.729 82.3955 393.621 85.5892 396.36 89.687C399.098 93.7849 400.56 98.6028 400.56 103.531C400.565 106.806 399.925 110.05 398.676 113.077C397.427 116.105 395.593 118.856 393.281 121.175C390.968 123.494 388.221 125.334 385.197 126.59C382.173 127.847 378.931 128.496 375.656 128.499V128.449Z" fill="#263238"/>
<path d="M375.668 63.614C375.668 67.9304 375.668 73.7444 375.668 78.6271C379.586 78.6269 383.448 79.5507 386.941 81.3237C390.435 83.0966 393.461 85.6686 395.773 88.8307C398.085 91.9928 399.619 95.6559 400.25 99.5222C400.881 103.389 400.59 107.349 399.403 111.082L414.101 115.071C415.771 109.097 416.048 102.82 414.911 96.7219C413.773 90.624 411.252 84.8683 407.541 79.8978C403.83 74.9273 399.028 70.8746 393.504 68.0516C387.981 65.2285 381.883 63.7104 375.681 63.614H375.668Z" fill="#39B24A"/>
<path d="M350.739 103.531C350.738 98.7182 352.133 94.0079 354.755 89.9717C357.378 85.9355 361.114 82.7466 365.513 80.7915L359.221 66.7852C351.893 69.9016 345.645 75.1067 341.256 81.7512C336.868 88.3956 334.533 96.1852 334.543 104.148C334.543 104.714 334.543 105.281 334.543 105.847H350.902C350.789 105.092 350.739 104.312 350.739 103.531Z" fill="#455A64"/>
<path d="M375.656 128.499C373.883 128.497 372.115 128.307 370.383 127.933C369.754 131.544 368.571 138.541 367.639 144.053C370.079 144.514 372.556 144.745 375.039 144.745C383.882 144.737 392.481 141.838 399.524 136.49C406.567 131.142 411.668 123.638 414.051 115.122L399.352 111.132C397.752 116.165 394.595 120.558 390.336 123.68C386.076 126.801 380.936 128.488 375.656 128.499Z" fill="#39B24A"/>
<g opacity="0.3">
<path d="M375.656 128.499C373.883 128.497 372.115 128.307 370.383 127.933C369.754 131.544 368.571 138.541 367.639 144.053C370.079 144.514 372.556 144.745 375.039 144.745C383.882 144.737 392.481 141.838 399.524 136.49C406.567 131.142 411.668 123.638 414.051 115.122L399.352 111.132C397.752 116.165 394.595 120.558 390.336 123.68C386.076 126.801 380.936 128.488 375.656 128.499Z" fill="black"/>
</g>
<path d="M370.27 105.545H368.772V107.483H366.696V105.545H361.725V104.11L366.066 98.2712H368.306L364.279 103.808H366.796V102.072H368.81V103.796H370.307L370.27 105.545Z" fill="#263238"/>
<path d="M370.899 102.877C370.899 99.8443 372.585 98.1077 374.85 98.1077C377.116 98.1077 378.802 99.8443 378.802 102.877C378.802 105.91 377.128 107.647 374.85 107.647C372.573 107.647 370.899 105.923 370.899 102.877ZM376.65 102.877C376.65 100.788 375.92 99.9198 374.85 99.9198C373.781 99.9198 373.063 100.788 373.063 102.877C373.063 104.966 373.793 105.847 374.813 105.847C375.832 105.847 376.65 104.966 376.65 102.877Z" fill="#263238"/>
<path d="M379.683 100.713C379.726 100.272 379.897 99.8534 380.174 99.5077C380.451 99.162 380.822 98.9039 381.242 98.7648C381.663 98.6256 382.114 98.6114 382.543 98.7237C382.971 98.836 383.358 99.0701 383.656 99.3977C383.954 99.7252 384.15 100.132 384.222 100.569C384.294 101.006 384.237 101.455 384.059 101.86C383.881 102.266 383.589 102.611 383.219 102.854C382.849 103.097 382.416 103.227 381.973 103.229C381.652 103.231 381.335 103.165 381.041 103.036C380.747 102.907 380.484 102.718 380.268 102.481C380.052 102.243 379.888 101.963 379.787 101.659C379.687 101.354 379.651 101.032 379.683 100.713ZM382.929 100.713C382.929 99.7184 382.552 99.2402 381.973 99.2402C381.394 99.2402 381.004 99.731 381.004 100.713C381.004 101.694 381.407 102.172 381.973 102.172C382.539 102.172 382.929 101.694 382.929 100.713ZM387.46 98.2712H389.02L382.728 107.483H381.168L387.46 98.2712ZM385.95 105.054C385.991 104.609 386.161 104.186 386.439 103.836C386.717 103.486 387.091 103.224 387.515 103.083C387.94 102.942 388.396 102.927 388.828 103.041C389.26 103.155 389.65 103.391 389.95 103.723C390.25 104.054 390.447 104.466 390.517 104.907C390.587 105.349 390.527 105.801 390.345 106.209C390.162 106.617 389.864 106.963 389.489 107.205C389.113 107.447 388.674 107.574 388.227 107.571C387.908 107.571 387.591 107.504 387.299 107.374C387.007 107.244 386.745 107.055 386.531 106.818C386.316 106.58 386.153 106.301 386.053 105.997C385.953 105.694 385.918 105.372 385.95 105.054ZM389.184 105.054C389.184 104.073 388.806 103.594 388.227 103.594C387.649 103.594 387.258 104.06 387.258 105.054C387.258 106.048 387.661 106.514 388.227 106.514C388.794 106.514 389.184 106.023 389.184 105.054Z" fill="#263238"/>
<path d="M408.589 154.926C408.589 155.14 393.576 155.304 375.039 155.304C356.502 155.304 341.489 155.14 341.489 154.926C341.489 154.712 356.515 154.536 375.039 154.536C393.563 154.536 408.589 154.712 408.589 154.926Z" fill="#263238"/>
<path d="M393.689 161.08C393.689 161.294 385.358 161.47 375.077 161.47C364.795 161.47 356.465 161.294 356.465 161.08C356.465 160.866 364.795 160.702 375.077 160.702C385.358 160.702 393.689 160.879 393.689 161.08Z" fill="#263238"/>
<path d="M426.157 181.315H162.401V267.971H426.157V181.315Z" fill="#FAFAFA"/>
<path d="M403.908 201.815C403.908 201.966 359.082 202.092 303.799 202.092C248.516 202.092 203.69 201.966 203.69 201.815C203.69 201.664 248.503 201.539 303.799 201.539C359.095 201.539 403.908 201.664 403.908 201.815Z" fill="#EBEBEB"/>
<path d="M403.908 212.072C403.908 212.223 359.082 212.349 303.799 212.349C248.516 212.349 203.69 212.223 203.69 212.072C203.69 211.921 248.503 211.795 303.799 211.795C359.095 211.795 403.908 211.908 403.908 212.072Z" fill="#EBEBEB"/>
<path d="M403.908 222.328C403.908 222.479 359.082 222.605 303.799 222.605C248.516 222.605 203.69 222.479 203.69 222.328C203.69 222.177 248.503 222.038 303.799 222.038C359.095 222.038 403.908 222.164 403.908 222.328Z" fill="#EBEBEB"/>
<path d="M403.908 232.572C403.908 232.735 359.082 232.848 303.799 232.848C248.516 232.848 203.665 232.735 203.665 232.572C203.665 232.408 248.478 232.295 303.774 232.295C359.07 232.295 403.908 232.421 403.908 232.572Z" fill="#EBEBEB"/>
<path d="M403.908 242.828C403.908 242.979 359.082 243.105 303.799 243.105C248.516 243.105 203.665 243.017 203.665 242.828C203.665 242.639 248.478 242.551 303.774 242.551C359.07 242.551 403.908 242.677 403.908 242.828Z" fill="#EBEBEB"/>
<path d="M386.478 230.885C386.478 230.885 386.34 231.049 386.038 231.338C385.533 231.743 384.963 232.058 384.351 232.27C383.122 232.605 381.834 232.674 380.576 232.472C379.317 232.27 378.116 231.802 377.053 231.099C375.646 230.102 374.47 228.815 373.604 227.324C372.648 225.776 371.893 223.977 370.987 222.101C370.075 220.033 368.742 218.177 367.073 216.652C366.083 215.808 364.919 215.193 363.663 214.853C362.3 214.494 360.876 214.425 359.485 214.651C356.544 215.145 353.787 216.408 351.494 218.314C349.103 220.189 347.014 222.479 344.446 224.606C341.73 226.955 338.346 228.395 334.769 228.721C332.844 228.854 330.922 228.416 329.245 227.462C327.678 226.487 326.356 225.165 325.381 223.599C323.393 220.629 322.386 217.156 319.794 214.438C318.521 212.987 316.827 211.971 314.949 211.531C313.969 211.342 312.963 211.35 311.986 211.553C311.01 211.756 310.084 212.15 309.261 212.714C307.651 213.808 306.351 215.299 305.485 217.042C304.686 218.767 304.091 220.579 303.711 222.441C303.311 224.36 302.725 226.236 301.962 228.041C301.09 229.974 299.711 231.635 297.972 232.848C296.145 234.147 294.066 235.047 291.869 235.491C289.653 235.975 287.362 236.001 285.136 235.567C283.003 235.138 280.978 234.282 279.184 233.05C277.422 231.917 275.837 230.659 274.15 229.526C272.525 228.347 270.688 227.493 268.739 227.009C266.79 226.576 264.753 226.806 262.95 227.664C261.277 228.5 259.804 229.69 258.634 231.15C257.537 232.548 256.556 234.034 255.702 235.592C254.858 237.129 253.894 238.598 252.82 239.984C251.69 241.403 250.276 242.569 248.667 243.407C247.007 244.301 245.12 244.682 243.243 244.502C241.465 244.287 239.808 243.485 238.536 242.224C237.398 241.121 236.509 239.786 235.932 238.31C235.423 236.948 235.027 235.546 234.749 234.119C234.17 231.376 233.603 228.696 231.967 226.569C231.23 225.48 230.28 224.551 229.175 223.837C228.07 223.123 226.833 222.64 225.537 222.416C224.264 222.25 222.971 222.388 221.762 222.819C220.681 223.209 219.676 223.784 218.792 224.518C215.406 227.324 213.758 230.709 211.241 232.672C209.41 234.402 207.034 235.439 204.521 235.604C203.855 235.603 203.193 235.502 202.558 235.302L201.941 235.063C202.751 235.343 203.601 235.488 204.458 235.491C206.919 235.282 209.234 234.234 211.014 232.521C213.456 230.571 215.016 227.185 218.452 224.291C219.371 223.525 220.413 222.921 221.535 222.504C222.784 222.057 224.119 221.907 225.436 222.064C226.795 222.287 228.095 222.782 229.259 223.52C230.422 224.257 231.424 225.221 232.207 226.355C233.021 227.458 233.65 228.686 234.069 229.992C234.477 231.325 234.817 232.677 235.088 234.044C235.364 235.451 235.76 236.832 236.271 238.172C236.835 239.593 237.692 240.88 238.788 241.947C239.981 243.114 241.524 243.857 243.18 244.061C244.925 244.21 246.676 243.842 248.214 243.004C249.751 242.199 251.101 241.08 252.178 239.72C253.234 238.349 254.181 236.897 255.009 235.378C255.875 233.798 256.868 232.291 257.979 230.873C259.201 229.341 260.743 228.095 262.497 227.223C264.434 226.293 266.628 226.04 268.726 226.506C270.762 227.022 272.68 227.924 274.377 229.161C276.076 230.306 277.661 231.565 279.41 232.672C281.131 233.862 283.074 234.693 285.124 235.114C287.254 235.529 289.447 235.503 291.567 235.038C293.673 234.62 295.667 233.762 297.419 232.521C298.254 231.926 299.01 231.229 299.671 230.445C300.285 229.672 300.801 228.827 301.207 227.928C301.966 226.153 302.548 224.306 302.943 222.416C303.332 220.519 303.94 218.673 304.755 216.917C305.663 215.097 307.019 213.538 308.694 212.386C309.597 211.778 310.611 211.354 311.677 211.138C312.744 210.922 313.843 210.919 314.911 211.128C316.922 211.594 318.736 212.682 320.096 214.236C322.776 217.08 323.783 220.528 325.721 223.473C326.651 224.963 327.902 226.227 329.383 227.173C330.95 228.092 332.753 228.53 334.568 228.431C338.017 228.113 341.281 226.728 343.905 224.467C346.422 222.429 348.549 220.126 350.978 218.238C353.348 216.273 356.196 214.97 359.233 214.463C360.697 214.24 362.191 214.317 363.625 214.689C364.93 215.063 366.14 215.711 367.174 216.589C368.872 218.154 370.223 220.057 371.138 222.177C371.889 223.959 372.729 225.702 373.655 227.399C374.482 228.862 375.615 230.128 376.977 231.112C378.006 231.812 379.172 232.286 380.397 232.503C381.623 232.72 382.88 232.675 384.087 232.37C385 232.092 385.824 231.58 386.478 230.885Z" fill="#455A64"/>
<path d="M399.138 228.494C399.138 228.494 398.912 228.494 398.446 228.494C398.159 228.479 397.873 228.445 397.59 228.393C397.214 228.304 396.844 228.191 396.483 228.054C394.225 227.013 392.197 225.532 390.518 223.7C389.964 223.133 389.385 222.529 388.806 221.887C388.237 221.186 387.619 220.526 386.956 219.912C385.279 218.549 383.223 217.736 381.067 217.584C379.853 217.482 378.632 217.615 377.468 217.974C376.288 218.379 375.201 219.017 374.271 219.849C372.395 221.711 370.634 223.686 368.999 225.763C368.016 226.872 366.875 227.831 365.613 228.607C364.203 229.43 362.632 229.941 361.008 230.105C357.538 230.311 354.066 229.748 350.839 228.456C347.517 227.261 344.346 225.612 340.772 224.555C338.97 223.984 337.099 223.658 335.21 223.586C333.286 223.545 331.374 223.905 329.597 224.643C326.023 226.128 323.229 228.847 319.857 231.049C318.124 232.223 316.223 233.127 314.219 233.729C312.123 234.351 309.95 234.677 307.763 234.698C303.293 234.773 298.876 233.712 294.927 231.615C291.104 229.57 287.782 226.703 285.199 223.221C282.594 219.836 281.16 215.985 279.272 212.474C278.362 210.693 277.206 209.049 275.837 207.592C274.41 206.125 272.697 204.968 270.803 204.194C268.869 203.389 266.736 203.191 264.687 203.627C262.771 204.103 261.028 205.106 259.653 206.522C258.355 207.84 257.321 209.395 256.608 211.103C255.953 212.737 255.427 214.42 255.035 216.136C254.619 217.835 254.242 219.534 253.713 221.17C253.187 222.82 252.456 224.397 251.536 225.864C249.673 228.794 247.158 231.253 244.187 233.05C241.275 234.86 238.002 236.011 234.598 236.422C231.386 236.775 228.136 236.449 225.059 235.466C219.257 233.654 215.155 229.753 213.632 225.751C212.839 223.75 212.437 221.837 211.87 220.126C211.419 218.518 210.644 217.019 209.593 215.721C208.767 214.782 207.748 214.034 206.605 213.528C205.462 213.021 204.223 212.769 202.973 212.789C202.081 212.84 201.216 213.112 200.456 213.582C201.18 213.024 202.06 212.707 202.973 212.676C204.255 212.632 205.53 212.871 206.709 213.375C207.888 213.88 208.941 214.638 209.794 215.595C210.885 216.901 211.694 218.417 212.172 220.05C212.764 221.774 213.179 223.687 213.984 225.638C215.507 229.551 219.534 233.352 225.222 235.101C228.214 236.04 231.368 236.344 234.484 235.994C237.799 235.579 240.985 234.449 243.822 232.685C246.718 230.911 249.167 228.495 250.982 225.625C252.677 222.654 253.835 219.408 254.405 216.036C254.795 214.284 255.325 212.567 255.991 210.901C256.731 209.139 257.798 207.533 259.137 206.17C260.631 204.586 262.572 203.496 264.702 203.047C266.832 202.597 269.048 202.808 271.055 203.653C273.046 204.453 274.85 205.657 276.353 207.189C277.765 208.693 278.959 210.387 279.901 212.223C281.814 215.797 283.224 219.584 285.778 222.907C288.311 226.316 291.564 229.126 295.305 231.137C299.148 233.169 303.441 234.204 307.788 234.145C309.918 234.113 312.033 233.8 314.08 233.213C316.022 232.62 317.866 231.747 319.555 230.621C322.864 228.456 325.683 225.713 329.408 224.178C331.267 223.398 333.27 223.021 335.285 223.07C337.23 223.149 339.156 223.488 341.011 224.077C344.648 225.159 347.844 226.833 351.079 228.016C354.218 229.288 357.6 229.851 360.982 229.665C362.535 229.516 364.037 229.035 365.387 228.255C366.616 227.509 367.724 226.58 368.671 225.499C370.337 223.425 372.123 221.45 374.02 219.584C374.997 218.718 376.14 218.059 377.38 217.646C378.601 217.274 379.883 217.141 381.155 217.256C383.382 217.427 385.501 218.285 387.221 219.71C387.885 220.34 388.508 221.012 389.083 221.724C389.65 222.378 390.216 222.982 390.757 223.536C392.39 225.37 394.371 226.863 396.584 227.928C397.381 228.307 398.255 228.501 399.138 228.494Z" fill="#39B24A"/>
<path d="M189.948 202.319C189.094 202.604 188.189 202.703 187.293 202.608C186.402 202.703 185.5 202.605 184.65 202.319C185.503 202.048 186.403 201.954 187.293 202.042C188.188 201.954 189.091 202.048 189.948 202.319Z" fill="#E0E0E0"/>
<path d="M189.948 212.072C189.091 212.342 188.188 212.436 187.293 212.348C186.403 212.437 185.503 212.343 184.65 212.072C185.502 211.792 186.403 211.698 187.293 211.795C188.188 211.7 189.092 211.794 189.948 212.072Z" fill="#E0E0E0"/>
<path d="M189.948 221.812C189.091 222.082 188.188 222.176 187.293 222.089C186.403 222.177 185.503 222.083 184.65 221.812C185.503 221.541 186.403 221.447 187.293 221.535C188.188 221.447 189.091 221.542 189.948 221.812Z" fill="#E0E0E0"/>
<path d="M189.948 231.552C189.094 231.838 188.189 231.936 187.293 231.842C186.402 231.937 185.5 231.838 184.65 231.552C185.503 231.281 186.403 231.187 187.293 231.275C188.188 231.188 189.091 231.282 189.948 231.552Z" fill="#E0E0E0"/>
<path d="M189.948 241.305C189.091 241.575 188.188 241.67 187.293 241.582C186.403 241.67 185.503 241.576 184.65 241.305C185.5 241.019 186.402 240.92 187.293 241.016C188.189 240.921 189.094 241.02 189.948 241.305Z" fill="#E0E0E0"/>
<path d="M214.274 253.827C210.756 254.196 207.209 254.196 203.69 253.827C207.209 253.457 210.756 253.457 214.274 253.827Z" fill="#E0E0E0"/>
<path d="M260.962 253.827C257.444 254.196 253.897 254.196 250.378 253.827C253.897 253.457 257.444 253.457 260.962 253.827Z" fill="#E0E0E0"/>
<path d="M307.65 253.827C304.127 254.196 300.576 254.196 297.054 253.827C300.576 253.457 304.127 253.457 307.65 253.827Z" fill="#E0E0E0"/>
<path d="M354.338 253.827C350.816 254.196 347.264 254.196 343.742 253.827C347.264 253.457 350.816 253.457 354.338 253.827Z" fill="#E0E0E0"/>
<path d="M401.013 253.827C397.495 254.196 393.948 254.196 390.43 253.827C393.948 253.457 397.495 253.457 401.013 253.827Z" fill="#E0E0E0"/>
<path d="M462.287 125.743C462.287 125.743 495.622 127.24 499.209 156.348C502.796 185.456 474.682 184.398 466.49 184.487C462.802 184.487 455.453 184.487 448.519 184.487C433.796 184.411 422.092 178.887 419.173 164.452C418.828 162.762 418.646 161.043 418.631 159.318C418.594 143.6 430.347 123.163 462.287 125.743Z" fill="#39B24A"/>
<path d="M431.316 159.758L473.952 162.779C475.018 162.854 476.087 162.718 477.1 162.379C478.113 162.04 479.049 161.505 479.855 160.803C480.66 160.102 481.319 159.248 481.794 158.291C482.269 157.335 482.551 156.294 482.623 155.228C482.698 154.162 482.562 153.093 482.223 152.08C481.884 151.067 481.349 150.131 480.647 149.325C479.946 148.52 479.092 147.861 478.135 147.386C477.179 146.911 476.138 146.629 475.072 146.557L432.461 143.6C431.397 143.525 430.327 143.661 429.315 144C428.303 144.339 427.368 144.875 426.563 145.576C425.759 146.278 425.101 147.131 424.627 148.088C424.154 149.045 423.874 150.085 423.803 151.151C423.665 153.287 424.377 155.391 425.785 157.004C427.193 158.616 429.181 159.607 431.316 159.758Z" fill="#263238"/>
<path d="M464.564 155.203C464.636 155.712 464.857 156.189 465.2 156.573C465.543 156.958 465.991 157.231 466.49 157.361C466.988 157.49 467.513 157.469 467.999 157.299C468.485 157.13 468.911 156.821 469.221 156.411C469.532 156 469.714 155.507 469.744 154.993C469.774 154.479 469.652 153.968 469.392 153.524C469.132 153.079 468.746 152.722 468.283 152.497C467.821 152.272 467.302 152.188 466.792 152.258C466.452 152.304 466.124 152.417 465.828 152.591C465.532 152.764 465.273 152.994 465.066 153.268C464.859 153.541 464.708 153.853 464.622 154.185C464.536 154.517 464.516 154.863 464.564 155.203Z" fill="white"/>
<path d="M434.777 153.076C434.846 153.587 435.066 154.065 435.407 154.451C435.749 154.837 436.197 155.113 436.696 155.244C437.194 155.375 437.72 155.355 438.207 155.188C438.694 155.02 439.121 154.711 439.432 154.301C439.744 153.89 439.927 153.397 439.958 152.882C439.989 152.368 439.867 151.856 439.607 151.411C439.347 150.966 438.961 150.608 438.498 150.383C438.035 150.157 437.515 150.074 437.004 150.144C436.32 150.238 435.701 150.599 435.284 151.149C434.866 151.699 434.684 152.392 434.777 153.076Z" fill="white"/>
<path d="M451.766 142.845C452.161 141.827 452.489 140.785 452.747 139.724C453.458 137.209 454.504 134.8 455.856 132.564C457.159 130.312 459.035 128.446 461.292 127.152C462.267 126.669 463.271 126.249 464.3 125.894C464.003 125.879 463.705 125.913 463.419 125.995C462.628 126.172 461.86 126.438 461.129 126.787C458.739 128.027 456.756 129.927 455.415 132.262C454.033 134.53 453.013 137.002 452.395 139.586C452.156 140.567 451.992 141.373 451.879 141.926C451.803 142.227 451.765 142.535 451.766 142.845Z" fill="white"/>
<path d="M456.51 184.499C456.51 184.436 455.503 183.669 454.132 182.121C452.352 180.08 451.049 177.668 450.319 175.061C449.626 172.445 449.271 169.751 449.261 167.045C449.33 165.917 449.33 164.787 449.261 163.66C449.167 163.953 449.116 164.258 449.11 164.566C449.048 165.145 448.972 165.988 448.909 167.082C448.8 169.836 449.11 172.589 449.828 175.25C450.602 177.912 452.01 180.347 453.93 182.347C454.511 182.949 455.138 183.504 455.805 184.008C456.208 184.361 456.485 184.537 456.51 184.499Z" fill="white"/>
<g opacity="0.3">
<path d="M426.773 177.892C430.247 175.489 432.889 175.577 437.294 174.746C441.714 174 446.188 173.617 450.671 173.601C461.003 173.375 471.674 173.79 480.572 177.376C482.938 178.171 485.024 179.636 486.574 181.592C486.574 181.592 482.296 183.92 473.499 184.273C465.093 184.6 447.487 184.411 447.487 184.411C442.478 184.36 437.519 183.401 432.852 181.58C427.277 179.214 426.773 177.892 426.773 177.892Z" fill="black"/>
</g>
<path d="M421.173 150.622C421.057 151.13 421.002 151.649 421.01 152.17C420.991 153.669 421.336 155.15 422.017 156.486C423.113 158.616 424.934 160.285 427.151 161.193C430.085 162.269 433.176 162.856 436.3 162.93L460.449 164.792L467.421 165.333C469.799 165.484 472.228 165.774 474.732 165.749C477.336 165.84 479.892 165.031 481.968 163.458C484.021 161.714 485.338 159.259 485.658 156.585C485.978 153.911 485.276 151.215 483.692 149.037C482.138 146.936 479.922 145.419 477.4 144.733C476.19 144.442 474.956 144.265 473.713 144.204L470.114 143.877L463.142 143.235L450.319 142.052C446.267 141.763 442.542 141.159 439.081 140.945C437.438 140.838 435.79 140.838 434.148 140.945C432.676 141.033 431.219 141.29 429.806 141.712C427.522 142.366 425.443 143.592 423.766 145.274C422.743 146.348 421.973 147.638 421.513 149.049C421.396 149.415 421.308 149.789 421.249 150.169C421.238 150.299 421.238 150.429 421.249 150.559C421.249 150.559 421.337 150.031 421.664 149.074C422.146 147.681 422.933 146.413 423.967 145.362C425.636 143.737 427.687 142.56 429.932 141.939C431.329 141.532 432.77 141.296 434.223 141.234C435.853 141.121 437.489 141.121 439.119 141.234C442.542 141.461 446.279 142.09 450.319 142.405L463.205 143.663L470.177 144.33L473.776 144.67C474.989 144.726 476.195 144.899 477.375 145.186C479.775 145.85 481.881 147.305 483.353 149.313C484.863 151.381 485.529 153.946 485.215 156.486C484.907 159.025 483.659 161.355 481.717 163.018C479.731 164.525 477.286 165.298 474.795 165.207C472.354 165.207 469.913 164.943 467.534 164.792L460.55 164.289L436.4 162.527C433.312 162.476 430.251 161.923 427.34 160.891C425.183 160.016 423.402 158.413 422.306 156.361C421.625 155.053 421.255 153.606 421.224 152.132C421.182 151.63 421.165 151.126 421.173 150.622Z" fill="white"/>
<path d="M499.398 161.218C498.868 160.741 498.27 160.347 497.623 160.048C496.118 159.233 494.543 158.555 492.917 158.022C491.279 157.478 489.594 157.09 487.883 156.864C487.184 156.72 486.468 156.677 485.756 156.738C485.756 156.902 488.953 157.267 492.703 158.513C496.453 159.758 499.398 161.357 499.398 161.218Z" fill="white"/>
<path d="M460.726 130.11C460.663 130.075 460.592 130.058 460.52 130.059C460.448 130.061 460.377 130.081 460.315 130.118C460.254 130.155 460.202 130.207 460.167 130.269C460.131 130.332 460.113 130.403 460.113 130.475C460.113 130.547 460.131 130.617 460.167 130.68C460.202 130.742 460.254 130.795 460.315 130.832C460.377 130.868 460.448 130.888 460.52 130.89C460.592 130.891 460.663 130.874 460.726 130.84C460.783 130.8 460.83 130.748 460.862 130.686C460.894 130.625 460.911 130.557 460.911 130.487C460.911 130.418 460.894 130.35 460.862 130.288C460.83 130.227 460.783 130.174 460.726 130.135" fill="white"/>
<path d="M456.611 138.352C456.547 138.328 456.478 138.32 456.41 138.328C456.342 138.335 456.277 138.36 456.221 138.398C456.164 138.436 456.117 138.487 456.084 138.547C456.052 138.607 456.034 138.674 456.032 138.742C456.035 138.815 456.056 138.886 456.094 138.947C456.133 139.009 456.187 139.059 456.25 139.094C456.314 139.128 456.386 139.145 456.459 139.143C456.531 139.141 456.602 139.12 456.664 139.082C456.726 139.044 456.777 138.991 456.811 138.927C456.846 138.863 456.864 138.792 456.862 138.719C456.861 138.647 456.84 138.576 456.803 138.513C456.765 138.451 456.712 138.4 456.649 138.365" fill="white"/>
<path d="M490.689 155.064C490.624 155.04 490.554 155.031 490.485 155.04C490.417 155.049 490.351 155.074 490.294 155.113C490.237 155.153 490.19 155.206 490.158 155.268C490.126 155.329 490.11 155.398 490.11 155.467C490.113 155.54 490.134 155.61 490.173 155.672C490.211 155.733 490.265 155.784 490.329 155.818C490.393 155.853 490.464 155.87 490.537 155.868C490.61 155.866 490.68 155.845 490.742 155.807C490.804 155.769 490.855 155.715 490.89 155.652C490.925 155.588 490.942 155.516 490.941 155.444C490.939 155.371 490.919 155.3 490.881 155.238C490.844 155.176 490.79 155.125 490.727 155.089" fill="white"/>
<path d="M497.611 157.619C497.546 157.592 497.476 157.582 497.406 157.588C497.337 157.595 497.27 157.619 497.212 157.657C497.153 157.696 497.105 157.748 497.072 157.809C497.038 157.871 497.02 157.939 497.019 158.009C497.022 158.082 497.043 158.152 497.082 158.214C497.12 158.275 497.174 158.326 497.238 158.36C497.302 158.395 497.373 158.412 497.446 158.41C497.519 158.408 497.589 158.387 497.651 158.349C497.713 158.311 497.764 158.257 497.799 158.194C497.834 158.13 497.851 158.058 497.85 157.986C497.848 157.913 497.827 157.842 497.79 157.78C497.753 157.718 497.699 157.667 497.636 157.632" fill="white"/>
<g opacity="0.3">
<path d="M453.578 127.442C453.578 127.819 456.586 128.247 461.406 129.078C467.629 130 473.674 131.876 479.326 134.64C482.333 136.242 485.086 138.282 487.493 140.693C489.451 142.666 491.113 144.913 492.426 147.363C494.653 151.591 494.943 154.687 495.333 154.637C495.484 154.637 495.622 153.844 495.534 152.422C495.369 150.41 494.881 148.438 494.087 146.583C492.907 143.806 491.259 141.252 489.217 139.032C486.726 136.321 483.789 134.057 480.534 132.337C477.306 130.649 473.877 129.381 470.328 128.562C467.471 127.902 464.568 127.46 461.645 127.24C456.674 126.888 453.603 127.102 453.578 127.442Z" fill="white"/>
</g>
<g opacity="0.3">
<path d="M491.444 169.75C491.948 170.241 493.722 169.209 494.83 167.082C495.937 164.956 495.761 162.93 495.069 162.804C494.377 162.678 493.458 164.125 492.552 165.887C491.646 167.649 490.929 169.247 491.444 169.75Z" fill="white"/>
</g>
<path d="M446.229 153.667C446.08 154.413 446.196 155.187 446.556 155.857C446.918 156.706 447.506 157.439 448.256 157.976C449.006 158.513 449.889 158.833 450.809 158.903C451.729 158.993 452.656 158.828 453.489 158.426C454.321 158.024 455.027 157.401 455.529 156.625C455.995 156.029 456.244 155.292 456.233 154.536C455.963 155.195 455.63 155.827 455.239 156.423C454.772 157.021 454.185 157.514 453.515 157.871C452.695 158.285 451.776 158.464 450.86 158.387C449.947 158.305 449.075 157.969 448.343 157.418C447.747 156.952 447.257 156.364 446.908 155.694C446.613 155.043 446.385 154.364 446.229 153.667Z" fill="white"/>
<path d="M420.645 194.844C418.707 195.548 420.922 224.215 422.419 238.826C423.225 246.653 424.408 254.783 428.9 261.251C433.934 268.449 442.743 271.646 451.552 272.577C463.696 273.836 473.21 268.122 478.722 258.47C484.087 249.167 487.592 238.909 489.041 228.268C490.576 216.212 491.558 208.359 491.281 197.813C491.23 197.864 455.906 182.008 420.645 194.844Z" fill="#39B24A"/>
<path d="M469.258 252.744C469.196 252.716 469.127 252.703 469.059 252.706C468.991 252.709 468.924 252.729 468.865 252.764C468.806 252.798 468.755 252.847 468.719 252.904C468.682 252.962 468.66 253.028 468.654 253.097C468.659 253.166 468.68 253.233 468.716 253.292C468.752 253.352 468.801 253.402 468.86 253.439C468.919 253.476 468.986 253.498 469.055 253.504C469.124 253.51 469.194 253.5 469.258 253.474C469.315 253.433 469.362 253.379 469.394 253.317C469.426 253.255 469.443 253.186 469.443 253.115C469.443 253.045 469.426 252.976 469.394 252.914C469.362 252.851 469.315 252.797 469.258 252.757" fill="white"/>
<path d="M456.51 253.172C456.448 253.144 456.38 253.13 456.311 253.134C456.243 253.137 456.176 253.157 456.117 253.192C456.058 253.226 456.008 253.274 455.971 253.332C455.934 253.39 455.912 253.456 455.906 253.524C455.911 253.594 455.932 253.661 455.968 253.72C456.004 253.78 456.053 253.83 456.112 253.867C456.171 253.904 456.238 253.926 456.307 253.932C456.376 253.938 456.446 253.928 456.51 253.902C456.567 253.861 456.614 253.807 456.646 253.745C456.678 253.683 456.695 253.613 456.695 253.543C456.695 253.473 456.678 253.404 456.646 253.342C456.614 253.279 456.567 253.225 456.51 253.185" fill="white"/>
<path d="M441.673 241.066C441.61 241.032 441.539 241.014 441.467 241.016C441.395 241.017 441.325 241.037 441.263 241.074C441.201 241.111 441.15 241.163 441.114 241.226C441.079 241.288 441.06 241.359 441.06 241.431C441.06 241.503 441.079 241.574 441.114 241.636C441.15 241.699 441.201 241.751 441.263 241.788C441.325 241.825 441.395 241.845 441.467 241.846C441.539 241.847 441.61 241.83 441.673 241.796C441.73 241.755 441.777 241.701 441.809 241.639C441.841 241.576 441.858 241.507 441.858 241.437C441.858 241.367 441.841 241.298 441.809 241.235C441.777 241.173 441.73 241.119 441.673 241.078" fill="white"/>
<path d="M445.688 208.195C445.624 208.161 445.553 208.144 445.481 208.145C445.409 208.147 445.339 208.167 445.277 208.204C445.215 208.24 445.164 208.293 445.129 208.355C445.093 208.418 445.074 208.488 445.074 208.56C445.074 208.632 445.093 208.703 445.129 208.766C445.164 208.828 445.215 208.881 445.277 208.917C445.339 208.954 445.409 208.974 445.481 208.976C445.553 208.977 445.624 208.96 445.688 208.925C445.745 208.885 445.791 208.831 445.824 208.768C445.856 208.706 445.872 208.637 445.872 208.567C445.872 208.497 445.856 208.427 445.824 208.365C445.791 208.303 445.745 208.249 445.688 208.208" fill="white"/>
<path d="M433.053 214.45C432.99 214.424 432.921 214.414 432.853 214.419C432.784 214.424 432.718 214.446 432.66 214.481C432.601 214.517 432.551 214.565 432.515 214.623C432.478 214.681 432.456 214.747 432.449 214.815C432.453 214.884 432.474 214.952 432.51 215.011C432.546 215.071 432.595 215.121 432.655 215.156C432.714 215.192 432.782 215.213 432.851 215.217C432.92 215.221 432.99 215.209 433.053 215.18C433.11 215.141 433.157 215.088 433.189 215.027C433.221 214.965 433.238 214.897 433.238 214.828C433.238 214.758 433.221 214.69 433.189 214.629C433.157 214.567 433.11 214.514 433.053 214.475" fill="white"/>
<path d="M483.39 247.937C483.327 247.909 483.258 247.896 483.189 247.899C483.12 247.903 483.053 247.923 482.993 247.957C482.933 247.991 482.882 248.039 482.844 248.097C482.806 248.155 482.782 248.221 482.774 248.289C482.781 248.359 482.803 248.426 482.841 248.486C482.878 248.545 482.928 248.595 482.988 248.632C483.048 248.668 483.115 248.69 483.185 248.697C483.255 248.703 483.325 248.692 483.39 248.667C483.448 248.626 483.494 248.572 483.526 248.51C483.558 248.448 483.575 248.378 483.575 248.308C483.575 248.238 483.558 248.169 483.526 248.106C483.494 248.044 483.448 247.99 483.39 247.95" fill="white"/>
<path d="M484.699 237.001C484.637 236.973 484.569 236.96 484.5 236.963C484.432 236.966 484.365 236.986 484.306 237.021C484.247 237.055 484.197 237.103 484.16 237.161C484.123 237.219 484.101 237.285 484.095 237.353C484.1 237.423 484.121 237.49 484.157 237.549C484.193 237.609 484.242 237.659 484.301 237.696C484.36 237.733 484.427 237.755 484.496 237.761C484.565 237.767 484.635 237.757 484.699 237.731C484.756 237.69 484.803 237.636 484.835 237.574C484.867 237.512 484.884 237.443 484.884 237.372C484.884 237.302 484.867 237.233 484.835 237.171C484.803 237.108 484.756 237.054 484.699 237.014" fill="white"/>
<path d="M484.913 227.16C484.849 227.132 484.779 227.119 484.709 227.123C484.639 227.128 484.571 227.148 484.511 227.184C484.451 227.22 484.4 227.269 484.362 227.329C484.325 227.388 484.303 227.455 484.296 227.525C484.295 227.597 484.313 227.669 484.347 227.732C484.382 227.796 484.432 227.849 484.494 227.887C484.556 227.925 484.626 227.946 484.698 227.948C484.77 227.951 484.842 227.934 484.906 227.9C484.97 227.867 485.024 227.817 485.063 227.756C485.101 227.694 485.123 227.624 485.127 227.552C485.13 227.48 485.114 227.408 485.081 227.344C485.048 227.279 484.999 227.225 484.938 227.185" fill="white"/>
<path d="M485.077 216.715C485.013 216.687 484.943 216.674 484.873 216.678C484.803 216.683 484.735 216.703 484.674 216.739C484.614 216.775 484.563 216.824 484.526 216.884C484.489 216.943 484.466 217.01 484.46 217.08C484.459 217.152 484.476 217.224 484.511 217.287C484.545 217.351 484.596 217.404 484.658 217.442C484.719 217.48 484.789 217.501 484.862 217.503C484.934 217.506 485.006 217.489 485.07 217.455C485.133 217.421 485.187 217.372 485.226 217.31C485.265 217.249 485.287 217.179 485.29 217.107C485.293 217.035 485.278 216.963 485.245 216.899C485.212 216.834 485.162 216.78 485.102 216.74" fill="white"/>
<path d="M425.15 212.487C425.088 212.458 425.019 212.445 424.951 212.449C424.882 212.452 424.816 212.472 424.757 212.506C424.697 212.541 424.647 212.589 424.611 212.647C424.574 212.705 424.552 212.771 424.546 212.839C424.545 212.911 424.562 212.983 424.597 213.046C424.631 213.11 424.682 213.163 424.743 213.201C424.805 213.239 424.875 213.26 424.948 213.262C425.02 213.265 425.092 213.248 425.155 213.214C425.219 213.181 425.273 213.131 425.312 213.07C425.351 213.008 425.373 212.938 425.376 212.866C425.379 212.794 425.364 212.722 425.331 212.658C425.298 212.593 425.248 212.539 425.188 212.499" fill="white"/>
<path d="M440.44 253.361C440.377 253.326 440.306 253.309 440.234 253.311C440.162 253.312 440.091 253.332 440.03 253.369C439.968 253.406 439.917 253.458 439.881 253.52C439.845 253.583 439.827 253.654 439.827 253.726C439.827 253.798 439.845 253.868 439.881 253.931C439.917 253.994 439.968 254.046 440.03 254.083C440.091 254.119 440.162 254.14 440.234 254.141C440.306 254.142 440.377 254.125 440.44 254.091C440.5 254.05 440.549 253.996 440.582 253.932C440.616 253.869 440.634 253.798 440.634 253.726C440.634 253.654 440.616 253.583 440.582 253.519C440.549 253.455 440.5 253.401 440.44 253.361Z" fill="white"/>
<path d="M439.798 263.705C439.735 263.671 439.664 263.653 439.592 263.655C439.52 263.656 439.45 263.676 439.388 263.713C439.326 263.75 439.275 263.802 439.239 263.865C439.204 263.927 439.185 263.998 439.185 264.07C439.185 264.142 439.204 264.213 439.239 264.275C439.275 264.338 439.326 264.39 439.388 264.427C439.45 264.464 439.52 264.484 439.592 264.485C439.664 264.487 439.735 264.469 439.798 264.435C439.855 264.394 439.902 264.34 439.934 264.278C439.966 264.216 439.983 264.147 439.983 264.076C439.983 264.006 439.966 263.937 439.934 263.875C439.902 263.812 439.855 263.758 439.798 263.718" fill="white"/>
<path d="M471.385 265.505C471.571 265.366 471.743 265.21 471.901 265.039C472.215 264.725 472.681 264.246 473.235 263.592C474.856 261.763 476.135 259.657 477.01 257.375C477.55 255.79 477.971 254.166 478.268 252.518C478.659 250.756 479.023 248.868 479.414 246.88C480.169 242.903 480.861 238.499 481.44 233.868C482.417 225.934 482.933 217.951 482.988 209.957C482.988 206.899 482.988 204.42 482.887 202.709C482.887 201.891 482.887 201.236 482.799 200.733C482.798 200.504 482.773 200.277 482.723 200.053C482.707 200.28 482.707 200.507 482.723 200.733V202.747C482.723 204.458 482.723 206.937 482.723 209.995C482.556 217.959 481.989 225.91 481.024 233.817C480.446 238.436 479.766 242.828 479.036 246.804C478.671 248.793 478.319 250.68 477.941 252.442C477.652 254.08 477.231 255.692 476.683 257.262C475.861 259.523 474.656 261.626 473.121 263.479C472.593 264.146 472.152 264.636 471.863 264.976C471.685 265.135 471.525 265.312 471.385 265.505Z" fill="white"/>
<path d="M446.028 235.642C445.889 235.642 445.398 243.595 444.933 253.424C444.467 263.252 444.215 271.231 444.354 271.231C444.492 271.231 444.983 263.277 445.449 253.449C445.914 243.621 446.166 235.642 446.028 235.642Z" fill="white"/>
<path d="M457.681 190.162C457.429 190.383 457.209 190.637 457.026 190.917C456.636 191.433 456.07 192.176 455.39 193.107C454.031 194.969 452.169 197.562 450.155 200.431L449.4 201.501L449.312 201.639C449.259 201.679 449.223 201.737 449.211 201.803C449.206 201.878 449.206 201.954 449.211 202.029V202.193C449.199 202.407 449.199 202.621 449.211 202.835C449.211 203.678 449.211 204.483 449.211 205.238C449.211 206.773 449.312 208.145 449.375 209.29C449.438 210.436 449.501 211.379 449.551 212.021C449.556 212.357 449.603 212.691 449.689 213.015C449.775 211.758 449.775 210.497 449.689 209.24C449.689 208.044 449.689 206.723 449.627 205.2C449.627 204.433 449.627 203.64 449.627 202.822C449.627 202.621 449.627 202.407 449.627 202.218V202.067C449.632 202.042 449.632 202.016 449.627 201.991C449.627 201.991 449.752 201.853 449.79 201.765L450.533 200.695C452.559 197.813 454.308 195.196 455.654 193.283C456.296 192.327 456.812 191.546 457.152 191.005C457.369 190.752 457.547 190.468 457.681 190.162Z" fill="white"/>
<path d="M446.229 250.655C446.643 250.744 447.064 250.799 447.487 250.819C448.293 250.894 449.476 250.97 450.935 251.045C453.842 251.196 457.882 251.284 462.337 251.184C466.792 251.083 470.819 250.819 473.726 250.542C475.173 250.403 476.356 250.265 477.161 250.152C477.587 250.123 478.008 250.051 478.42 249.938C478.001 249.895 477.58 249.895 477.161 249.938L473.726 250.164C470.819 250.341 466.792 250.554 462.4 250.655C458.008 250.756 453.93 250.718 451.074 250.655H447.613C447.153 250.599 446.688 250.599 446.229 250.655Z" fill="white"/>
<path d="M420.469 214.072C420.469 214.072 420.708 214.261 421.173 214.513C421.848 214.864 422.541 215.18 423.25 215.457C425.576 216.393 427.981 217.121 430.435 217.634C432.886 218.17 435.371 218.536 437.873 218.729C438.904 218.853 439.945 218.874 440.981 218.792C439.967 218.587 438.942 218.444 437.91 218.364C436.01 218.125 433.393 217.747 430.549 217.105C428.118 216.584 425.722 215.911 423.375 215.092C421.589 214.488 420.506 213.997 420.469 214.072Z" fill="white"/>
<path d="M436.904 224.97C437.074 227.263 437.92 229.453 439.334 231.265C440.749 233.077 442.669 234.429 444.852 235.151C447.034 235.872 449.382 235.93 451.597 235.318C453.813 234.705 455.797 233.45 457.3 231.71C458.803 229.97 459.756 227.824 460.039 225.543C460.322 223.262 459.923 220.948 458.892 218.893C457.861 216.839 456.244 215.136 454.245 214C452.246 212.865 449.956 212.347 447.663 212.512C446.138 212.622 444.65 213.032 443.283 213.718C441.917 214.404 440.699 215.352 439.699 216.509C438.7 217.667 437.939 219.01 437.459 220.462C436.979 221.913 436.791 223.446 436.904 224.97Z" fill="#263238"/>
<path d="M440.05 224.731C440.171 226.405 440.786 228.004 441.817 229.328C442.848 230.652 444.248 231.64 445.841 232.168C447.433 232.696 449.147 232.74 450.764 232.294C452.382 231.848 453.83 230.932 454.927 229.663C456.024 228.393 456.72 226.827 456.927 225.162C457.133 223.497 456.842 221.808 456.088 220.309C455.335 218.81 454.154 217.568 452.695 216.74C451.235 215.912 449.563 215.535 447.89 215.658C445.647 215.822 443.562 216.87 442.092 218.572C440.621 220.273 439.887 222.489 440.05 224.731Z" fill="white"/>
<path d="M444.14 226.279C444.193 225.816 444.219 225.349 444.215 224.882C444.215 224.001 444.215 222.756 444.215 221.22L444.127 221.397L448.481 218.88H448.242L452.647 221.397C452.76 221.598 452.483 221.132 452.508 221.183V222.441V223.699C452.508 224.538 452.508 225.377 452.508 226.216L452.634 226.002L448.318 228.633H448.519C447.173 227.903 446.065 227.374 445.285 226.934C444.885 226.698 444.464 226.5 444.026 226.342C444.366 226.622 444.733 226.867 445.121 227.072C445.864 227.525 446.971 228.167 448.343 228.972H448.431L448.532 228.909L452.898 226.393L453.012 226.33V226.179C453.012 225.398 453.012 224.58 453.012 223.737C453.012 223.309 453.012 222.881 453.012 222.479V221.22C453.012 221.22 452.773 220.805 452.886 220.994L448.469 218.552L448.343 218.477L448.23 218.552L444.026 221.057L443.926 221.12V221.233C443.926 222.819 444.027 224.09 444.064 225.008C444.046 225.433 444.072 225.859 444.14 226.279Z" fill="#39B24A"/>
<g opacity="0.2">
<path d="M491.23 197.864C491.23 197.864 455.868 181.781 420.645 194.844C420.645 194.844 437.118 208.334 491.23 197.864Z" fill="black"/>
</g>
<path d="M420.645 194.844C420.645 194.844 399.39 177.741 395.652 179.025C391.915 180.309 390.48 182.272 392.204 186.89C393.928 191.509 420.645 217.093 420.645 217.093V194.844Z" fill="#39B24A"/>
<path d="M421.475 227.525C421.342 227.118 421.266 226.695 421.249 226.267C421.148 225.449 421.035 224.253 420.922 222.768C420.683 219.811 420.469 215.721 420.343 211.203C420.217 206.685 420.217 202.583 420.255 199.626C420.255 198.141 420.255 196.945 420.343 196.115C420.328 195.691 420.374 195.267 420.481 194.856C420.572 195.269 420.614 195.692 420.607 196.115C420.607 197.084 420.67 198.254 420.72 199.613C420.796 202.746 420.897 206.748 421.01 211.178C421.123 215.608 421.287 219.622 421.387 222.743C421.387 224.102 421.475 225.26 421.513 226.241C421.555 226.669 421.543 227.101 421.475 227.525Z" fill="#263238"/>
<g opacity="0.2">
<path d="M478.482 203.703C479.54 214.79 483.252 226.971 487.291 237.366C488.009 234.182 488.55 231.074 489.016 228.318C488.562 225.147 486.499 220.855 485.24 217.923C483.126 213.192 481.029 208.456 478.948 203.716" fill="black"/>
</g>
<path d="M491.23 197.864C491.23 197.864 510.724 237.567 503.173 241.834C492.527 247.887 477.803 200.418 477.803 200.418L484.699 199.047L491.23 197.864Z" fill="#39B24A"/>
<path d="M493.105 235.642C492.757 235.258 492.453 234.836 492.199 234.384C491.658 233.591 490.941 232.408 490.048 230.91C487.832 226.998 485.865 222.951 484.158 218.792C482.145 213.921 480.597 209.416 479.59 206.119C479.074 204.471 478.696 203.124 478.47 202.193C478.315 201.714 478.21 201.221 478.155 200.72C478.395 201.162 478.581 201.631 478.709 202.117C479.061 203.162 479.502 204.445 480.03 205.981C481.138 209.227 482.761 213.695 484.762 218.565C486.763 223.435 488.827 227.689 490.45 230.722C491.256 232.232 491.935 233.452 492.413 234.283C492.695 234.708 492.927 235.164 493.105 235.642Z" fill="#263238"/>
</svg>
