<svg width="627" height="543" viewBox="0 0 627 543" fill="none" xmlns="http://www.w3.org/2000/svg">
<path d="M422.16 358.437H116.621V542.087H422.16V358.437Z" fill="white"/>
<path d="M422.16 358.437H116.621V386.667H422.16V358.437Z" fill="#E0E0E0"/>
<path d="M137.402 372.552C137.405 373.358 137.169 374.148 136.723 374.82C136.278 375.492 135.642 376.017 134.898 376.328C134.154 376.639 133.334 376.722 132.543 376.567C131.751 376.411 131.024 376.025 130.452 375.456C129.881 374.887 129.491 374.161 129.332 373.37C129.174 372.579 129.254 371.759 129.561 371.013C129.869 370.268 130.392 369.631 131.062 369.182C131.732 368.734 132.521 368.494 133.327 368.494C134.405 368.494 135.439 368.921 136.202 369.682C136.966 370.442 137.397 371.474 137.402 372.552Z" fill="white"/>
<path d="M151.124 372.552C151.128 373.359 150.891 374.149 150.445 374.822C149.998 375.494 149.362 376.019 148.617 376.33C147.872 376.64 147.051 376.722 146.259 376.566C145.468 376.409 144.74 376.02 144.169 375.45C143.598 374.879 143.21 374.151 143.053 373.359C142.897 372.567 142.979 371.747 143.289 371.002C143.6 370.256 144.125 369.62 144.797 369.174C145.47 368.728 146.26 368.491 147.067 368.494C148.143 368.494 149.175 368.922 149.936 369.683C150.697 370.444 151.124 371.476 151.124 372.552Z" fill="white"/>
<path d="M164.848 372.552C164.851 373.358 164.615 374.148 164.169 374.82C163.724 375.492 163.088 376.017 162.344 376.328C161.6 376.639 160.78 376.722 159.989 376.567C159.197 376.411 158.47 376.025 157.898 375.456C157.327 374.887 156.937 374.161 156.779 373.37C156.62 372.579 156.7 371.759 157.007 371.013C157.315 370.268 157.838 369.631 158.508 369.182C159.178 368.734 159.967 368.494 160.773 368.494C161.851 368.494 162.885 368.921 163.648 369.682C164.412 370.442 164.843 371.474 164.848 372.552Z" fill="white"/>
<path d="M422.091 542.104C422.091 542.104 422.091 540.962 422.091 538.78C422.091 536.598 422.091 533.376 422.091 529.165C422.091 520.641 422.091 508.299 421.989 492.377C421.989 460.55 421.887 414.675 421.819 358.436L422.16 358.794H116.638L117.081 358.351C117.081 423.421 117.081 485.507 117.081 542.019L116.672 541.593L336.582 541.797L399.657 541.917H416.449H420.796H422.279H416.551H399.845L336.855 542.309L116.706 542.513H116.297V542.104C116.297 485.592 116.297 423.506 116.297 358.436V357.993H116.757L422.279 358.095H422.62V358.436C422.62 414.692 422.483 460.72 422.449 492.582C422.449 508.487 422.449 520.863 422.347 529.302C422.347 533.478 422.347 536.683 422.347 538.865C422.347 541.047 422.091 542.104 422.091 542.104Z" fill="#263238"/>
<path d="M163.075 417.608H150.085V512.698H163.075V417.608Z" fill="#39B24A"/>
<path d="M188.151 449.895H175.161V512.68H188.151V449.895Z" fill="#39B24A"/>
<path d="M213.211 429.421H200.221V513.175H213.211V429.421Z" fill="#39B24A"/>
<path d="M238.287 421.273H225.297V512.698H238.287V421.273Z" fill="#39B24A"/>
<path d="M263.347 451.822H250.357V512.68H263.347V451.822Z" fill="#39B24A"/>
<path d="M288.423 463.772H275.433V512.697H288.423V463.772Z" fill="#39B24A"/>
<path d="M313.483 427.359H300.493V512.68H313.483V427.359Z" fill="#39B24A"/>
<path d="M338.56 442.752H325.57V512.698H338.56V442.752Z" fill="#39B24A"/>
<path d="M363.619 430.444H350.629V512.681H363.619V430.444Z" fill="#39B24A"/>
<path d="M388.696 456.663H375.706V512.698H388.696V456.663Z" fill="#39B24A"/>
<g opacity="0.3">
<path d="M188.151 449.895H175.161V512.68H188.151V449.895Z" fill="white"/>
</g>
<g opacity="0.3">
<path d="M238.287 421.273H225.297V512.698H238.287V421.273Z" fill="white"/>
</g>
<g opacity="0.3">
<path d="M288.423 463.772H275.433V512.697H288.423V463.772Z" fill="white"/>
</g>
<g opacity="0.3">
<path d="M338.56 442.752H325.57V512.698H338.56V442.752Z" fill="white"/>
</g>
<g opacity="0.3">
<path d="M388.696 456.663H375.706V512.698H388.696V456.663Z" fill="white"/>
</g>
<path d="M407.345 512.698C407.345 512.936 346.913 513.141 272.382 513.141C197.851 513.141 137.401 512.987 137.401 512.698C137.401 512.408 197.817 512.237 272.382 512.237C346.947 512.237 407.345 512.442 407.345 512.698Z" fill="#263238"/>
<path d="M444.168 0.52832H0.238892V320.898H444.168V0.52832Z" fill="white"/>
<path d="M364.199 73.1497H259C241.507 73.1497 227.326 87.3305 227.326 104.824V115.342C227.326 132.835 241.507 147.016 259 147.016H364.199C381.692 147.016 395.873 132.835 395.873 115.342V104.824C395.873 87.3305 381.692 73.1497 364.199 73.1497Z" fill="#EBEBEB"/>
<path d="M32.049 155.625C31.8924 142.054 35.7597 128.741 43.1626 117.367C50.5655 105.992 61.1722 97.0657 73.6439 91.714C86.1156 86.3624 99.8932 84.8255 113.238 87.2973C126.582 89.7691 138.895 96.1388 148.623 105.602C158.35 115.066 165.056 127.199 167.893 140.471C170.731 153.742 169.573 167.557 164.567 180.171C159.56 192.785 150.928 203.633 139.761 211.346C128.595 219.059 115.393 223.29 101.824 223.507C83.576 223.735 65.9828 216.716 52.9026 203.991C39.8224 191.265 32.3229 173.872 32.049 155.625ZM133.549 153.92C133.413 147.438 131.362 141.141 127.654 135.824C123.945 130.506 118.746 126.405 112.71 124.038C106.674 121.671 100.073 121.144 93.7382 122.523C87.4034 123.902 81.6186 127.126 77.1133 131.788C72.6079 136.45 69.5835 142.341 68.4214 148.719C67.2593 155.097 68.0114 161.677 70.583 167.628C73.1546 173.579 77.4306 178.636 82.8719 182.161C88.3132 185.686 94.6762 187.521 101.159 187.435C109.887 187.287 118.199 183.682 124.272 177.411C130.344 171.14 133.681 162.716 133.549 153.988V153.92Z" fill="#F5F5F5"/>
<path d="M32.0491 155.625C31.7341 137.376 38.6698 119.748 51.3349 106.607C63.9999 93.4659 81.3602 85.8845 99.6076 85.5261L100.187 121.53C91.4386 121.67 83.104 125.28 77.0169 131.565C70.9299 137.851 67.589 146.296 67.7291 155.045C67.8693 163.794 71.479 172.128 77.7643 178.215C84.0496 184.302 92.4955 187.643 101.244 187.503L101.824 223.507C83.5747 223.739 65.979 216.722 52.8978 203.996C39.8166 191.269 32.3185 173.873 32.0491 155.625Z" fill="#455A64"/>
<path d="M133.549 153.988C133.568 154.164 133.568 154.341 133.549 154.517V156.085C133.559 156.935 133.502 157.784 133.378 158.625C133.271 159.775 133.077 160.914 132.799 162.035C132.13 165.165 130.98 168.173 129.389 170.95C127.321 174.667 124.54 177.94 121.207 180.582C116.877 184.077 111.727 186.411 106.245 187.362C100.762 188.314 95.1279 187.852 89.8736 186.02C88.3756 185.5 86.9123 184.885 85.4925 184.179C84.061 183.415 82.6827 182.555 81.367 181.605C80.0287 180.636 78.7532 179.582 77.5484 178.451C76.3599 177.251 75.2495 175.975 74.2242 174.633C72.109 171.875 70.4513 168.796 69.3146 165.512C68.1921 162.116 67.583 158.57 67.5076 154.994C67.4846 151.418 68.0078 147.86 69.0589 144.442C70.0812 141.122 71.6357 137.99 73.6616 135.168C75.5661 132.408 77.9032 129.973 80.5828 127.957C81.8451 126.992 83.1723 126.115 84.5549 125.332C85.9443 124.572 87.3855 123.911 88.8678 123.354C96.0932 120.592 104.06 120.458 111.374 122.976C118.688 125.494 124.884 130.504 128.878 137.128C130.556 139.853 131.804 142.82 132.577 145.925C132.886 147.044 133.114 148.183 133.259 149.334C133.414 150.167 133.499 151.011 133.515 151.857C133.515 152.522 133.515 153.034 133.515 153.426C133.537 153.607 133.537 153.79 133.515 153.971C133.462 153.8 133.434 153.622 133.429 153.443C133.429 153.034 133.344 152.522 133.276 151.874C133.233 151.032 133.125 150.194 132.952 149.368C132.776 148.215 132.52 147.076 132.185 145.959C131.372 142.907 130.095 139.998 128.401 137.333C126.165 133.778 123.272 130.683 119.877 128.213C115.505 124.973 110.385 122.893 104.993 122.166C99.6005 121.438 94.1119 122.088 89.0383 124.053C86.1076 125.161 83.3649 126.713 80.9067 128.656C78.3447 130.642 76.1224 133.032 74.3265 135.731C72.3602 138.484 70.8467 141.534 69.843 144.766C68.8319 148.08 68.3262 151.529 68.3429 154.994C68.4692 161.896 70.7788 168.58 74.9402 174.087C76.8715 176.724 79.2209 179.027 81.8955 180.906C83.1687 181.837 84.5076 182.674 85.9016 183.412C87.2799 184.109 88.7038 184.713 90.1634 185.219C95.2942 187.024 100.798 187.502 106.164 186.608C111.529 185.714 116.581 183.477 120.849 180.105C124.138 177.521 126.903 174.333 128.997 170.712C130.6 167.989 131.784 165.041 132.509 161.966C132.816 160.849 133.032 159.709 133.157 158.557C133.311 157.724 133.397 156.881 133.412 156.034C133.412 155.386 133.498 154.875 133.515 154.466C133.511 154.306 133.522 154.146 133.549 153.988Z" fill="#263238"/>
<path d="M32.0492 155.625C32.0492 155.625 32.0493 156 32.1686 156.733C32.2879 157.466 32.305 158.591 32.4243 159.989C32.4243 160.722 32.5436 161.523 32.6118 162.392C32.68 163.262 32.9187 164.234 33.0891 165.273C33.2596 166.313 33.4642 167.421 33.6687 168.683C33.923 169.943 34.2417 171.189 34.6234 172.416C36.3229 178.826 38.9841 184.942 42.5163 190.555C47.1213 198.034 53.1232 204.557 60.1944 209.767L63.1776 211.932C64.2175 212.614 65.3256 213.21 66.4166 213.875C67.5076 214.54 68.5987 215.222 69.8261 215.768L73.406 217.472L75.213 218.308L77.1223 218.972L80.9921 220.319C82.3047 220.745 83.6855 221.001 85.0493 221.342C86.4102 221.724 87.7938 222.02 89.1918 222.228C92.0606 222.718 94.9599 223.009 97.8689 223.098C99.3349 223.098 100.835 223.251 102.335 223.2L106.853 222.893C107.62 222.893 108.387 222.893 109.137 222.706L111.404 222.314C112.922 222.024 114.473 221.836 116.007 221.478C122.249 219.95 128.266 217.618 133.907 214.54C135.339 213.722 136.703 212.835 138.118 211.915C139.543 211.034 140.904 210.055 142.192 208.983C144.885 206.886 147.431 204.608 149.812 202.164L153.221 198.277L154.074 197.305L154.841 196.248L156.358 194.117L157.892 191.987L159.239 189.702L160.569 187.418L161.234 186.276L161.796 185.065L164.029 180.207L165.734 175.093C170.195 161.012 169.956 145.862 165.052 131.929L163.109 126.815C162.325 125.212 161.523 123.61 160.722 122.024L160.126 120.831L159.427 119.706L158.012 117.456L156.614 115.223L155.011 113.143L153.409 111.063L152.625 110.04L151.721 109.085C150.545 107.807 149.369 106.562 148.193 105.301C145.737 102.959 143.122 100.789 140.368 98.806C139.047 97.7713 137.651 96.8367 136.191 96.0102C134.759 95.1749 133.361 94.3055 131.912 93.5043C129.004 92.0424 126.003 90.7725 122.928 89.7027C119.937 88.6525 116.879 87.8039 113.774 87.1627C112.24 86.8558 110.688 86.7024 109.171 86.4637L106.87 86.1569C106.12 86.0546 105.353 86.1569 104.586 86.0376L100.051 85.8841C98.5508 85.8841 97.0676 86.0546 95.6016 86.1228C92.6971 86.3071 89.809 86.6945 86.9586 87.282C85.5638 87.5306 84.1859 87.8665 82.8332 88.2878C81.4864 88.6799 80.1226 88.9867 78.827 89.447L75.0084 90.9301L73.1162 91.6461L71.3262 92.5496L67.7974 94.2544C66.6382 94.8169 65.5983 95.6011 64.5073 96.2489C63.4163 96.8967 62.3423 97.5786 61.3195 98.2946L58.4044 100.545C51.5057 105.982 45.718 112.695 41.3571 120.32C38.0079 126.046 35.5478 132.248 34.0608 138.714C33.7139 139.953 33.4351 141.211 33.2255 142.481C33.055 143.674 32.8846 144.783 32.7482 145.891C32.6118 146.999 32.4243 147.885 32.3561 148.755C32.2879 149.624 32.3561 150.459 32.2538 151.175C32.2538 152.59 32.1345 153.664 32.1004 154.431C32.0663 155.198 32.0151 155.556 32.0151 155.556C32.0151 155.556 32.0151 155.181 32.0151 154.431C32.0151 153.681 32.0151 152.573 32.0151 151.158C32.0151 150.442 32.0151 149.624 32.0151 148.738C32.0151 147.851 32.2368 146.896 32.3561 145.857C32.4754 144.817 32.6459 143.674 32.7993 142.447C32.9966 141.166 33.264 139.897 33.6005 138.646C35.0485 132.135 37.474 125.882 40.7945 120.098C45.1384 112.389 50.9262 105.588 57.8418 100.067L60.774 97.7831C61.8138 97.0501 62.9049 96.4023 63.9788 95.7034C65.0528 95.0044 66.1268 94.2543 67.3031 93.6747L70.866 91.97L72.5707 91.0494L74.48 90.3164L78.3497 88.8163C79.6453 88.3389 81.0261 88.0321 82.3899 87.623C83.761 87.1964 85.1555 86.8492 86.5665 86.5831C89.4451 85.9887 92.3615 85.5957 95.2947 85.4068C96.7779 85.4068 98.278 85.1511 99.7952 85.134L104.381 85.2875C105.148 85.2875 105.915 85.2875 106.699 85.4068L109.001 85.7136C110.552 85.9523 112.12 86.1057 113.672 86.3955C116.816 87.0504 119.914 87.9103 122.945 88.9697C126.148 90.0272 129.27 91.3147 132.287 92.8224C133.753 93.6065 135.185 94.5271 136.634 95.3454C138.107 96.1834 139.52 97.1233 140.862 98.1582C143.653 100.173 146.307 102.372 148.806 104.738L152.369 108.557L153.273 109.529L154.091 110.569L155.693 112.665L157.398 114.779L158.813 117.03L160.245 119.314L160.961 120.456L161.558 121.649L163.995 126.508C164.643 128.213 165.291 129.917 165.956 131.622C170.927 145.73 171.167 161.075 166.638 175.331L164.933 180.445C164.183 182.15 163.416 183.736 162.666 185.372L162.103 186.6L161.421 187.759L160.074 190.077L158.711 192.379L157.159 194.527L155.608 196.675L154.841 197.749L153.972 198.737C152.812 200.067 151.67 201.38 150.562 202.675C148.144 205.119 145.564 207.397 142.84 209.494C141.534 210.57 140.155 211.556 138.714 212.443C137.282 213.33 135.901 214.267 134.452 215.103C131.567 216.682 128.577 218.06 125.503 219.228C122.506 220.383 119.436 221.34 116.314 222.092C114.78 222.45 113.211 222.638 111.677 222.927L109.376 223.319C108.609 223.439 107.825 223.439 107.057 223.507L102.489 223.797C100.971 223.797 99.4713 223.797 97.9712 223.695C95.0337 223.586 92.1066 223.284 89.2088 222.791C87.7948 222.57 86.3946 222.269 85.0152 221.888C83.6344 221.53 82.2535 221.274 80.9239 220.831L77.02 219.467L75.0937 218.785L73.2526 217.933L69.6556 216.228C68.4623 215.682 67.3883 214.932 66.2461 214.301C65.104 213.671 64.03 213.023 62.973 212.341L59.9727 210.142C52.8177 204.908 46.7448 198.338 42.0901 190.793C38.5719 185.125 35.9444 178.95 34.2995 172.484C33.9263 171.219 33.6303 169.933 33.413 168.632L32.8505 165.222C32.697 164.182 32.5095 163.228 32.4243 162.341C32.339 161.455 32.322 160.637 32.2879 159.921C32.2879 158.506 32.1515 157.415 32.1004 156.647C32.0492 155.88 32.0492 155.625 32.0492 155.625Z" fill="#263238"/>
<path d="M93.4365 79.9858C137.76 79.2698 173.082 113.654 173.798 158.165L131.861 158.83C131.52 137.555 115.342 124.155 94.1525 124.496L93.4365 79.9858Z" fill="#39B24A"/>
<path d="M93.4364 79.9858C93.4364 79.9858 93.4364 80.2756 93.4364 80.8211C93.4364 81.3666 93.4364 82.1678 93.4364 83.1566C93.4364 85.2534 93.5557 88.2708 93.658 92.0894C93.8285 99.8118 94.0501 110.841 94.3569 124.479L94.016 124.155C98.2667 124.09 102.506 124.612 106.614 125.707C111.135 126.894 115.381 128.956 119.11 131.775C123.118 134.846 126.362 138.802 128.588 143.334C130.899 148.169 132.121 153.453 132.168 158.812L131.725 158.386L164.114 157.858L173.576 157.704L173.15 158.148C172.92 149.717 171.479 141.364 168.871 133.344L166.961 127.718C166.16 125.894 165.257 124.138 164.387 122.382C163.551 120.614 162.594 118.905 161.523 117.268C160.583 115.635 159.547 114.058 158.421 112.546C157.296 111.063 156.17 109.614 155.011 108.165C153.852 106.716 152.573 105.523 151.397 104.21L149.607 102.301L147.681 100.596L143.896 97.1865C139.093 93.4099 133.878 90.1901 128.349 87.5889L124.633 85.8841C123.388 85.3898 122.161 84.9977 120.968 84.5715L117.558 83.3782C116.433 83.0202 115.308 82.7986 114.149 82.5258L111.029 81.7758L109.563 81.4177L108.114 81.2132L103 80.4802C101.644 80.2928 100.277 80.1847 98.9086 80.1563L95.8912 80.0028L94.1012 79.9858H93.4364H95.8912H98.9427C100.339 79.9637 101.735 80.0434 103.119 80.2244L108.233 80.8722L109.682 81.0768L111.166 81.4007L114.319 82.1337C115.393 82.4065 116.535 82.594 117.729 82.952L121.138 84.1283C122.332 84.5545 123.576 84.9295 124.82 85.4068L128.588 87.1116C134.185 89.6968 139.47 92.9111 144.34 96.6921C145.584 97.8002 146.863 98.9083 148.158 100.102L150.119 101.806L151.926 103.733C153.119 105.045 154.398 106.324 155.591 107.722L159 112.137C160.147 113.657 161.2 115.245 162.154 116.893C163.241 118.527 164.209 120.236 165.052 122.007C165.904 123.712 166.859 125.536 167.66 127.394L169.825 133.105C172.474 141.205 173.939 149.646 174.172 158.165V158.608H173.729L164.268 158.761L131.878 159.273H131.435V158.847C131.421 153.617 130.257 148.455 128.025 143.726C125.873 139.296 122.722 135.427 118.82 132.423C115.179 129.65 111.033 127.612 106.614 126.423C102.574 125.333 98.4045 124.8 94.2206 124.837H93.8796V124.513C93.7262 110.875 93.6069 99.6754 93.5387 91.8848C93.5387 88.0833 93.5387 85.0659 93.5387 83.0373V80.7529C93.4193 80.2415 93.4364 79.9858 93.4364 79.9858Z" fill="#263238"/>
<path d="M444.168 0.52832H0.238892V43.3171H444.168V0.52832Z" fill="#E0E0E0"/>
<path d="M376.064 97.9366H251.277C250.581 97.9367 249.912 97.6635 249.415 97.1758C248.917 96.6881 248.631 96.0247 248.618 95.3283C248.618 94.623 248.898 93.9466 249.397 93.4479C249.896 92.9491 250.572 92.6689 251.277 92.6689H376.064C376.766 92.6734 377.438 92.9556 377.933 93.4539C378.428 93.9521 378.706 94.626 378.706 95.3283C378.693 96.0218 378.409 96.6826 377.915 97.1699C377.422 97.6571 376.757 97.9322 376.064 97.9366Z" fill="#263238"/>
<path d="M376.064 112.086H251.277C250.572 112.086 249.896 111.806 249.397 111.307C248.898 110.808 248.618 110.132 248.618 109.426C248.616 109.076 248.683 108.728 248.816 108.403C248.948 108.079 249.144 107.784 249.391 107.535C249.638 107.286 249.932 107.089 250.256 106.954C250.579 106.819 250.927 106.75 251.277 106.75H376.064C376.414 106.75 376.762 106.819 377.085 106.954C377.409 107.089 377.703 107.286 377.95 107.535C378.197 107.784 378.393 108.079 378.525 108.403C378.658 108.728 378.725 109.076 378.723 109.426C378.723 110.132 378.443 110.808 377.944 111.307C377.445 111.806 376.769 112.086 376.064 112.086Z" fill="#263238"/>
<path d="M307.977 126.235H251.277C250.572 126.235 249.896 125.955 249.397 125.456C248.898 124.958 248.618 124.281 248.618 123.576C248.616 123.225 248.683 122.878 248.816 122.553C248.948 122.228 249.144 121.933 249.391 121.684C249.638 121.436 249.932 121.238 250.256 121.104C250.579 120.969 250.927 120.899 251.277 120.899H307.977C308.327 120.897 308.675 120.964 309 121.097C309.324 121.23 309.619 121.425 309.868 121.672C310.117 121.919 310.314 122.213 310.449 122.537C310.584 122.861 310.653 123.208 310.653 123.559C310.655 123.911 310.588 124.26 310.454 124.586C310.32 124.911 310.123 125.207 309.874 125.456C309.625 125.705 309.329 125.902 309.004 126.036C308.678 126.17 308.329 126.238 307.977 126.235Z" fill="#263238"/>
<path d="M364.199 163.518H259C241.507 163.518 227.326 177.698 227.326 195.191V205.71C227.326 223.203 241.507 237.384 259 237.384H364.199C381.692 237.384 395.873 223.203 395.873 205.71V195.191C395.873 177.698 381.692 163.518 364.199 163.518Z" fill="#EBEBEB"/>
<path d="M379.473 283.445H240.145C236.274 283.441 232.562 281.9 229.826 279.16C227.09 276.421 225.553 272.708 225.553 268.836C225.553 266.92 225.93 265.022 226.664 263.252C227.397 261.481 228.472 259.872 229.827 258.517C231.182 257.162 232.791 256.088 234.561 255.354C236.332 254.621 238.229 254.243 240.145 254.243H379.473C383.345 254.243 387.058 255.78 389.798 258.516C392.537 261.253 394.078 264.964 394.083 268.836C394.083 272.711 392.543 276.427 389.804 279.166C387.064 281.906 383.348 283.445 379.473 283.445Z" fill="#EBEBEB"/>
<path d="M375.228 188.952H250.459C249.754 188.952 249.077 188.672 248.579 188.173C248.08 187.675 247.8 186.998 247.8 186.293C247.8 185.588 248.08 184.911 248.579 184.412C249.077 183.914 249.754 183.634 250.459 183.634H375.228C375.578 183.634 375.923 183.702 376.246 183.836C376.569 183.97 376.862 184.166 377.109 184.412C377.356 184.659 377.552 184.953 377.685 185.275C377.819 185.598 377.888 185.944 377.888 186.293C377.888 186.642 377.819 186.988 377.685 187.311C377.552 187.633 377.356 187.926 377.109 188.173C376.862 188.42 376.569 188.616 376.246 188.75C375.923 188.884 375.578 188.952 375.228 188.952Z" fill="#263238"/>
<path d="M369.91 271.819H245.14C244.435 271.819 243.759 271.539 243.26 271.04C242.761 270.542 242.481 269.865 242.481 269.16C242.481 268.454 242.761 267.778 243.26 267.279C243.759 266.781 244.435 266.5 245.14 266.5H369.91C370.27 266.489 370.629 266.551 370.965 266.682C371.301 266.814 371.607 267.013 371.864 267.266C372.121 267.52 372.323 267.823 372.459 268.157C372.595 268.492 372.661 268.85 372.654 269.211C372.648 269.563 372.571 269.91 372.429 270.233C372.287 270.555 372.083 270.846 371.827 271.089C371.572 271.332 371.271 271.521 370.942 271.646C370.612 271.772 370.262 271.831 369.91 271.819Z" fill="#263238"/>
<path d="M375.228 203.101H250.459C249.754 203.101 249.077 202.821 248.579 202.323C248.08 201.824 247.8 201.147 247.8 200.442C247.8 199.737 248.08 199.06 248.579 198.562C249.077 198.063 249.754 197.783 250.459 197.783H375.228C375.578 197.783 375.923 197.851 376.246 197.985C376.569 198.119 376.862 198.315 377.109 198.562C377.356 198.809 377.552 199.102 377.685 199.424C377.819 199.747 377.888 200.093 377.888 200.442C377.888 200.791 377.819 201.137 377.685 201.46C377.552 201.782 377.356 202.076 377.109 202.323C376.862 202.57 376.569 202.765 376.246 202.899C375.923 203.033 375.578 203.101 375.228 203.101Z" fill="#263238"/>
<path d="M307.158 217.251H250.459C249.754 217.251 249.077 216.97 248.579 216.472C248.08 215.973 247.8 215.297 247.8 214.591C247.8 213.886 248.08 213.21 248.579 212.711C249.077 212.212 249.754 211.932 250.459 211.932H307.158C307.864 211.932 308.54 212.212 309.039 212.711C309.538 213.21 309.818 213.886 309.818 214.591C309.818 215.297 309.538 215.973 309.039 216.472C308.54 216.97 307.864 217.251 307.158 217.251Z" fill="#263238"/>
<path d="M218.615 88.9356C217.843 89.063 217.061 89.12 216.279 89.106L209.921 89.2424C204.551 89.2424 197.118 89.3788 188.935 89.3788H179.372L179.679 89.2595C175.502 93.3849 171.905 96.8967 169.331 99.3685L166.382 102.147C166.044 102.514 165.66 102.835 165.24 103.102C165.507 102.681 165.828 102.297 166.194 101.96L169.058 98.9253C171.513 96.3512 175.042 92.7542 179.167 88.5776L179.287 88.4583H189.021C197.203 88.4583 204.636 88.4583 210.006 88.5776L216.365 88.714C217.12 88.7155 217.874 88.7897 218.615 88.9356Z" fill="#263238"/>
<path d="M216.774 92.601C218.732 92.601 220.319 91.0134 220.319 89.0551C220.319 87.0968 218.732 85.5093 216.774 85.5093C214.815 85.5093 213.228 87.0968 213.228 89.0551C213.228 91.0134 214.815 92.601 216.774 92.601Z" fill="#263238"/>
<path d="M216.774 199.181C218.732 199.181 220.319 197.593 220.319 195.635C220.319 193.676 218.732 192.089 216.774 192.089C214.815 192.089 213.228 193.676 213.228 195.635C213.228 197.593 214.815 199.181 216.774 199.181Z" fill="#263238"/>
<path d="M214.421 196.265C212.447 196.494 210.458 196.579 208.472 196.521C204.789 196.521 199.709 196.521 194.101 196.521L179.747 196.385L175.383 196.283C174.855 196.32 174.325 196.32 173.797 196.283C175.748 195.883 177.741 195.729 179.73 195.822C183.412 195.72 188.492 195.669 194.101 195.703C199.709 195.737 204.789 195.805 208.472 195.907C210.461 195.87 212.45 195.99 214.421 196.265Z" fill="#263238"/>
<path d="M65.888 274.172H54.2617V285.798H65.888V274.172Z" fill="#455A64"/>
<path d="M104.875 274.172H93.249V285.798H104.875V274.172Z" fill="#E0E0E0"/>
<path d="M147.169 274.172H135.543V285.798H147.169V274.172Z" fill="#39B24A"/>
<path d="M30.4466 21.9228C30.3965 23.0806 30.0075 24.1981 29.3278 25.1367C28.6481 26.0753 27.7077 26.7935 26.6234 27.2023C25.539 27.6111 24.3585 27.6923 23.2284 27.436C22.0983 27.1797 21.0683 26.5971 20.2664 25.7605C19.4645 24.924 18.926 23.8703 18.7177 22.7303C18.5094 21.5904 18.6405 20.4143 19.0948 19.3483C19.5491 18.2822 20.3065 17.373 21.2729 16.7336C22.2394 16.0942 23.3724 15.7528 24.5312 15.7517C25.3252 15.7672 26.1084 15.9393 26.8358 16.258C27.5631 16.5768 28.2204 17.036 28.77 17.6093C29.3195 18.1826 29.7505 18.8588 30.0383 19.599C30.326 20.3392 30.4647 21.1289 30.4466 21.9228Z" fill="white"/>
<path d="M50.4603 21.9228C50.4102 23.0806 50.0212 24.1981 49.3415 25.1367C48.6618 26.0753 47.7214 26.7935 46.6371 27.2023C45.5527 27.6111 44.3722 27.6923 43.2421 27.436C42.1119 27.1797 41.082 26.5971 40.2801 25.7605C39.4782 24.924 38.9396 23.8703 38.7313 22.7303C38.5231 21.5904 38.6542 20.4143 39.1085 19.3483C39.5627 18.2822 40.3201 17.373 41.2866 16.7336C42.2531 16.0942 43.3861 15.7528 44.5449 15.7517C45.3389 15.7672 46.122 15.9393 46.8494 16.258C47.5768 16.5768 48.2341 17.036 48.7837 17.6093C49.3332 18.1826 49.7642 18.8588 50.0519 19.599C50.3396 20.3392 50.4784 21.1289 50.4603 21.9228Z" fill="white"/>
<path d="M70.3033 21.9228C70.2532 23.0813 69.8637 24.1995 69.1832 25.1384C68.5028 26.0773 67.5614 26.7956 66.4761 27.2038C65.3908 27.612 64.2094 27.6923 63.0788 27.4346C61.9483 27.1769 60.9184 26.5926 60.1172 25.7544C59.316 24.9161 58.7788 23.8609 58.5725 22.7199C58.3661 21.5788 58.4996 20.4023 58.9565 19.3365C59.4134 18.2707 60.1734 17.3627 61.1421 16.7254C62.1108 16.0881 63.2454 15.7495 64.4049 15.7517C65.1975 15.7694 65.9788 15.9431 66.7042 16.2629C67.4296 16.5826 68.0849 17.0422 68.6327 17.6152C69.1805 18.1883 69.6099 18.8637 69.8966 19.6028C70.1832 20.3419 70.3214 21.1303 70.3033 21.9228Z" fill="white"/>
<path d="M444.253 320.898C444.253 317.915 444.099 194.851 443.895 0.528462L444.253 0.886454H0.357992L0.801225 0.443227C0.801225 115.274 0.801225 224.172 0.801225 320.813L0.409132 320.404L444.338 320.813L0.409132 321.205H0V320.813C0 224.172 0 115.274 0 0.443227V0H0.477322H444.372H444.73V0.357992C444.253 194.851 444.253 317.915 444.253 320.898Z" fill="#263238"/>
<path d="M627 211.642H310.79V448.02H627V211.642Z" fill="white"/>
<path d="M625.994 211.642H309.784V240.861H625.994V211.642Z" fill="#E0E0E0"/>
<path d="M327.104 230.462C329.429 230.462 331.314 228.577 331.314 226.252C331.314 223.926 329.429 222.041 327.104 222.041C324.778 222.041 322.893 223.926 322.893 226.252C322.893 228.577 324.778 230.462 327.104 230.462Z" fill="white"/>
<path d="M341.287 230.462C343.613 230.462 345.498 228.577 345.498 226.252C345.498 223.926 343.613 222.041 341.287 222.041C338.962 222.041 337.076 223.926 337.076 226.252C337.076 228.577 338.962 230.462 341.287 230.462Z" fill="white"/>
<path d="M355.488 230.462C357.813 230.462 359.698 228.577 359.698 226.252C359.698 223.926 357.813 222.041 355.488 222.041C353.162 222.041 351.277 223.926 351.277 226.252C351.277 228.577 353.162 230.462 355.488 230.462Z" fill="white"/>
<path d="M625.994 448.02C625.994 448.02 625.994 446.537 625.994 443.69C625.994 440.843 625.994 436.632 625.994 431.126C625.994 420.131 625.994 403.987 625.909 383.394C625.909 342.207 625.79 283.156 625.721 211.659L626.079 212.017L309.903 212.102L310.346 211.659C310.346 296.606 310.346 377.018 310.346 448.037L309.937 447.628L538.183 447.832L602.963 447.935H620.147H624.579H626.096H620.249H603.202L538.422 448.037L309.988 448.242H309.596V447.85C309.596 376.882 309.596 296.418 309.596 211.472V211.25H310.074H626.25H626.608V211.625C626.608 283.224 626.471 342.361 626.42 383.598C626.42 404.174 626.42 420.284 626.42 431.331C626.42 436.803 626.42 440.979 626.42 443.809C626.42 446.639 625.994 448.02 625.994 448.02Z" fill="#263238"/>
<path d="M608.572 354.089C608.572 354.345 545.65 354.533 468.051 354.533C390.452 354.533 327.496 354.345 327.496 354.089C327.496 353.834 390.4 353.646 468.051 353.646C545.701 353.646 608.572 353.851 608.572 354.089Z" fill="#E0E0E0"/>
<path d="M608.572 329.831C608.572 330.07 545.65 330.274 468.051 330.274C390.452 330.274 327.496 330.07 327.496 329.831C327.496 329.592 390.4 329.388 468.051 329.388C545.701 329.388 608.572 329.575 608.572 329.831Z" fill="#E0E0E0"/>
<path d="M608.572 305.556C608.572 305.811 545.65 305.999 468.051 305.999C390.452 305.999 327.496 305.811 327.496 305.556C327.496 305.3 390.4 305.112 468.051 305.112C545.701 305.112 608.572 305.317 608.572 305.556Z" fill="#E0E0E0"/>
<path d="M608.572 281.297C608.572 281.536 545.65 281.741 468.051 281.741C390.452 281.741 327.496 281.536 327.496 281.297C327.496 281.059 390.4 280.854 468.051 280.854C545.701 280.854 608.572 281.042 608.572 281.297Z" fill="#E0E0E0"/>
<path d="M374.666 343.094H351.277V390.127H374.666V343.094Z" fill="#39B24A"/>
<path d="M458.607 343.094H435.218V390.127H458.607V343.094Z" fill="#455A64"/>
<path d="M585.916 359.118H562.527V390.11H585.916V359.118Z" fill="#455A64"/>
<path d="M542.531 320.813H519.142V390.11H542.531V320.813Z" fill="#E0E0E0"/>
<path d="M499.623 293.844H476.234V390.127H499.623V293.844Z" fill="#39B24A"/>
<path d="M414.966 320.813H391.577V390.11H414.966V320.813Z" fill="#E0E0E0"/>
<path d="M605.231 390.127H604.174H601.105H589.308L545.889 390.264L402.692 390.4H327.138H326.626V389.991C326.626 352.743 326.763 320.984 326.797 298.515C326.797 287.315 326.882 278.433 326.916 272.314C326.916 269.296 326.916 266.961 326.916 265.341C326.916 264.574 326.916 263.994 326.916 263.551C326.902 263.347 326.902 263.142 326.916 262.938C326.916 262.938 326.916 263.159 326.916 263.551V265.341C326.916 266.961 326.916 269.296 326.916 272.314C326.916 278.433 326.916 287.315 327.036 298.515C327.036 320.984 327.138 352.743 327.206 389.991L326.797 389.565H402.657L545.855 389.684L589.274 389.821L601.071 389.906H604.14L605.231 390.127Z" fill="#263238"/>
<path d="M386.531 413.977H376.251V424.256H386.531V413.977Z" fill="#39B24A"/>
<path d="M449.333 413.653H439.053V423.932H449.333V413.653Z" fill="#E0E0E0"/>
<path d="M517.266 413.977H506.987V424.256H517.266V413.977Z" fill="#455A64"/>
<path d="M420.557 418.784C415.906 419.233 411.231 419.381 406.561 419.227C401.891 419.381 397.216 419.233 392.565 418.784C397.217 418.345 401.891 418.197 406.561 418.341C411.231 418.197 415.906 418.345 420.557 418.784Z" fill="#263238"/>
<path d="M482.882 418.784C478.231 419.233 473.556 419.381 468.886 419.227C464.216 419.381 459.541 419.233 454.89 418.784C459.542 418.345 464.216 418.197 468.886 418.341C473.556 418.197 478.231 418.345 482.882 418.784Z" fill="#263238"/>
<path d="M549.23 418.784C539.915 419.375 530.571 419.375 521.256 418.784C530.571 418.193 539.915 418.193 549.23 418.784Z" fill="#263238"/>
</svg>
